<?xml version="1.0" encoding="UTF-8" standalone="no"?>
<svg 
   width="347.03998pt"
   height="205.92pt"
   viewBox="0 0 347.03998 205.92"
   version="1.1"
   id="svg69"
   xmlns="http://www.w3.org/2000/svg"
   xmlns:svg="http://www.w3.org/2000/svg" content="%3Cmxfile%20host%3D%22app.diagrams.net%22%20modified%3D%222023-01-18T14%3A50%3A18.332Z%22%20agent%3D%225.0%20(X11%3B%20Linux%20x86_64)%20AppleWebKit%2F537.36%20(KHTML%2C%20like%20Gecko)%20Chrome%2F108.0.0.0%20Safari%2F537.36%22%20version%3D%2220.8.1%22%20etag%3D%22na6haMa93CIsWWln93tN%22%20type%3D%22google%22%3E%3Cdiagram%20id%3D%22sW16sbxJDWm1MhWyTwTw%22%20name%3D%22Page-1%22%3E7Vptb9s2EP41BrYPCvgu6WPixtuKpJgaLUv6ZdBs2tYqiZ4sx85%2B%2FY5HKrLiOsm6tjbaAoZ9PN4dj88djy%2FwgA%2FLzU91tphfmokuBoxMNgP%2BasBYHDL4tox7xxAxcYxZnU8ci3aMq%2Fwf7Zmt2Cqf6GVPsDGmaPJFnzk2VaXHTY%2BX1bVZ98WmpuiPushmfkTSMa7GWaF3xH7PJ83cc6mKu46fdT6b%2B6EjFrqOMnsQdozlPJuY9dZY%2FHzAh7UxjaPKzVAXFrsWF%2BfQaE%2Fvg2O1rpqXKJg%2Fk2G8GL4xV4tNXb1OLmbj34JIeeea%2B3bGegIA%2BGZlKvg5q82qmmhrh0Br%2BV4347lvmLqZm5mpsuLCmAUwKTD%2F0k1z72OZrRoDrHlTFr5Xb%2FLmZou%2BtaZOpG%2B92njL2LhvG1VT399sN7a0bLNTw1arNzVVM8rKvLCMNC8hlRh5o9fw%2FdaUWYUKk1ObKN10gTPKi8KbcABZVPYC30bYrOqxfgLt0CdNk9Uz3TwVli5BYGFpU2qYFCjWusia%2FK7vSeZTfPYg12UBED4R%2FktShIdLii4Rbrd6nkuKLg9ue2nwdSUFO2hSRAdMio%2BpFPTbqBT8kEnRunmXFSs%2F1IAJ%2BPzqfnZSZj3PG321yHDyazgx9AOeLRduE5%2FmG5tFXQbRl4VoCtEYmsLUXYysVpulHoc7XTd683SQdiH1Ckz4k4I%2F0dC2ve7OB8qz5lsng5b36Vdm%2FH0P%2F3IrMyIvXZnykCuzPWZ%2F38OPKynEQfdw8oFyrYrGxv5u1ssW9ffKXkzObKnM4ToUZEU%2BA1RPQSogJ4LHtoCedYK2QJZFBS6fboq8et%2BzMm%2BaBeqO4LNer0%2FW%2FMTUMOKIxjGUr5FT2TZ2l%2Bv1mdn0zBA7eEgAQxLGABKJ4qinVJtH7uflrCewVZBbLjshnMFktsW6Ut4y6UkYPxLy033RNBkh4PwIUe5MqJn%2FxRBM9HT5mLewt0i4PfeGueQWMwLhTDwl4MROBEF8OEkFsVEOKL0Owgtuj%2FO2kXBhMQswBTjhjk4AxQcu5ZbmMpVWEtqJJEjYURwphONxAVdHYvEngkcps%2FdeokCDo66LkgiVoxNJxQNXMkfzRNlUJ8ruYPBtzSoapqHdUcGqTBzFpLRaMXpIwkSyGG3bL2UNUHUhhLUZXfPEUVZWCASHiVSECI1SMDGF0LFEop94qiYyQjQUSRWTCGKiOFpG%2FxAVAFDhmI6HtlnifgOFYkhykSoUCSghqZQOfSVTETluLNqwAWmR9NEMryGi7y4VVzixKHGUZNY3h5RUIpUOJwZB4khJMB0i%2BkomArEByhoOkRYkYdgvcc0wKtG%2BSKnk2FaJoyh1wXayCUMEcO4MPeHRtVCJo%2B3DAWH2FYRQRlLukJEy4SFzFM7MGqQCAkAdckChgxFLIb52HAmhi9BNyBEX4Qj5qBBJANMqcAtri8y7S47pRKOEK9TBNCQOzQuBuS1iDzN1fKXQA%2FBQoi565P2mISyOba6LfZhy7vphID8DhCN2uZ%2By0OVz4gjsbF171ysW%2BaMl%2FPomCIP0%2FCb4JaCvMGX3lQUoG64K7LA%2FVDBsFW%2FqrFpOTV32hlzaR60fYGLDgP7Y823Z1Oa9DnaLHumJTd3W2fHGq9pule68vWvwRbK73k%2ByJgvKsggqM%2BnbKB0MH6eb79dcLbUt527XOp3XetpTHTD%2BZLjcqOP%2BdvFsTHHQHe7sf%2FDc5uK5h793fYKrlji2q1ZMd5A9yCPIN3Gmbp%2F7nztTu0eIg1202HHcvr%2BnxPG8n7fPTI9fxd5%2Bva9i%2FFGpZod%2BFGP7Xib%2FYMcThc%2FwHMn4oZHne5Gnx4P8p85%2FemxHlUjsCUNyTGH4DIfEwy8AuRf5r6v0yC%2BX89Ds%2FimBfVt%2FN%2BHn%2FwI%3D%3C%2Fdiagram%3E%3C%2Fmxfile%3E">
  <defs
     id="defs11">
    <clipPath
       id="clip-0">
      <path
         clip-rule="nonzero"
         d="M 244.324219 110.171875 L 251.820313 110.171875 L 251.820313 118.414063 L 244.324219 118.414063 Z M 244.324219 110.171875 "
         id="path2" />
    </clipPath>
    <clipPath
       id="clip-1">
      <path
         clip-rule="nonzero"
         d="M 75 157 L 122 157 L 122 204.601563 L 75 204.601563 Z M 75 157 "
         id="path5" />
    </clipPath>
    <clipPath
       id="clip-2">
      <path
         clip-rule="nonzero"
         d="M 225 157 L 272 157 L 272 204.601563 L 225 204.601563 Z M 225 157 "
         id="path8" />
    </clipPath>
  </defs>
  <path
     fill="none"
     stroke-width="1"
     stroke-linecap="butt"
     stroke-linejoin="miter"
     stroke="rgb(0%, 0%, 0%)"
     stroke-opacity="1"
     stroke-miterlimit="10"
     d="M 161.001705 150.999711 L 300.998341 150.999711 "
     transform="matrix(0.74946, 0, 0, 0.74946, 0.37473, 0.37473)"
     id="path13" />
  <path
     fill="none"
     stroke-width="1"
     stroke-linecap="butt"
     stroke-linejoin="miter"
     stroke="rgb(0%, 0%, 0%)"
     stroke-opacity="1"
     stroke-miterlimit="10"
     d="M 131.000936 181.00048 L 131.000936 211.001248 "
     transform="matrix(0.74946, 0, 0, 0.74946, 0.37473, 0.37473)"
     id="path15" />
  <path
     fill="none"
     stroke-width="1"
     stroke-linecap="butt"
     stroke-linejoin="miter"
     stroke="rgb(0%, 0%, 0%)"
     stroke-opacity="1"
     stroke-miterlimit="10"
     d="M 101.000168 150.999711 L 60.997406 150.999711 "
     transform="matrix(0.74946, 0, 0, 0.74946, 0.37473, 0.37473)"
     id="path17" />
  <path
     fill="none"
     stroke-width="1"
     stroke-linecap="round"
     stroke-linejoin="round"
     stroke="rgb(0%, 0%, 0%)"
     stroke-opacity="1"
     stroke-miterlimit="10"
     d="M 101.000168 120.998943 C 122.208147 121.46803 143.431762 121.900634 161.001705 120.998943 M 101.000168 120.998943 C 118.06975 120.201493 136.140053 120.191069 161.001705 120.998943 M 161.001705 120.998943 C 159.557957 145.631262 160.162559 166.41185 161.001705 181.00048 M 161.001705 120.998943 C 161.59067 142.092256 161.528125 161.84085 161.001705 181.00048 M 161.001705 181.00048 C 141.998438 181.448719 124.522313 179.520247 101.000168 181.00048 M 161.001705 181.00048 C 138.339554 179.968486 114.489047 180.65127 101.000168 181.00048 M 101.000168 181.00048 C 100.18187 159.792501 99.389633 138.240524 101.000168 120.998943 M 101.000168 181.00048 C 100.650958 168.4602 100.421626 154.100902 101.000168 120.998943 "
     transform="matrix(0.74946, 0, 0, 0.74946, 0.37473, 0.37473)"
     id="path19" />
  <path
     fill-rule="nonzero"
     fill="rgb(0%, 0%, 0%)"
     fill-opacity="1"
     stroke-width="12.027439"
     stroke-linecap="butt"
     stroke-linejoin="miter"
     stroke="rgb(0%, 0%, 0%)"
     stroke-opacity="0.1176"
     stroke-miterlimit="4"
     d="M 287.059912 628.12374 C 287.059912 632.573559 267.87552 635.688432 229.898254 637.023377 C 213.846007 637.023377 203.666534 637.468359 198.968315 637.913341 C 194.270097 638.803305 191.920987 641.918178 191.920987 648.147924 C 191.920987 648.592906 192.704024 652.15276 193.878578 658.827488 C 198.185279 672.176944 200.925906 679.741636 202.883497 681.076581 C 204.841088 682.411527 269.833111 682.856509 397.076529 682.856509 C 523.536911 682.411527 591.269562 681.521563 599.882962 680.186618 C 642.558447 672.621926 678.186604 656.157597 707.158952 630.793631 C 735.739781 605.874647 750.225955 572.056026 751.008992 529.782749 C 751.008992 478.609835 729.083972 431.886739 684.842414 389.168481 C 639.034783 343.780331 579.524015 314.85651 507.093147 302.842 C 502.394928 302.397018 467.158289 301.507054 402.166266 301.062072 L 307.027341 301.062072 L 276.880439 181.806933 C 256.91301 104.825072 247.125055 63.88674 247.125055 58.99194 C 247.125055 56.322049 247.516573 54.542121 247.908091 54.097139 C 248.691128 53.207176 251.040237 51.87223 254.955419 50.092303 C 258.870601 47.867393 264.743374 47.422411 272.18222 47.867393 C 279.229548 48.757357 290.192058 47.867393 305.06975 46.087466 L 335.999689 46.087466 C 339.914871 39.85772 341.872462 36.297865 341.872462 34.962919 C 341.872462 24.283355 339.523353 14.493754 334.825134 5.149135 C 331.692988 1.58928 326.211733 -0.190648 319.164406 -0.190648 C 316.815296 -0.190648 304.678232 0.254334 281.970176 1.144298 C 259.262119 1.58928 225.983072 2.034262 182.133032 2.034262 C 140.632102 2.034262 108.919127 2.034262 86.994107 2.034262 C 65.069087 2.034262 52.932023 1.58928 50.974432 1.144298 C 38.837367 1.144298 32.964594 4.259171 32.964594 10.933899 C 32.964594 12.268844 34.139149 17.163645 36.09674 25.173318 C 38.837367 35.852883 41.186476 41.637647 43.927104 42.972593 C 46.667731 44.307538 54.498096 45.197502 67.026678 46.087466 C 85.036516 46.087466 105.003945 46.97743 126.928964 49.202339 C 136.325401 50.982266 142.589693 54.987103 146.113357 61.216849 C 148.070948 63.88674 171.953559 156.442967 218.152707 338.88553 C 263.960338 521.773075 287.059912 617.889157 287.059912 628.12374 Z M 644.907557 553.811769 C 644.907557 562.711406 644.516038 569.831116 642.949966 575.170899 C 641.775411 580.510681 638.643265 587.630391 633.945047 596.97501 C 629.246828 606.319629 621.024946 613.88432 608.887881 618.779121 C 597.142335 624.118903 580.69857 629.458686 559.948105 634.798468 C 555.249886 635.688432 528.626648 636.133414 480.07839 637.023377 C 468.724362 637.023377 456.978816 637.023377 444.841751 637.023377 C 433.096205 637.023377 423.30825 636.578395 415.869404 636.133414 C 408.822076 635.24345 404.515375 635.24345 404.123857 636.133414 C 395.510457 635.24345 389.246165 632.128577 386.11402 626.788794 C 384.547947 622.783958 378.283655 597.419992 366.929627 549.806932 C 355.575599 502.638855 343.830053 456.805724 332.084507 411.862556 C 319.947442 367.36437 314.074669 344.670295 314.074669 343.780331 C 314.074669 342.445385 341.089425 342.000403 395.118938 342.000403 L 429.964059 342.000403 C 504.744037 342.000403 557.990514 358.464732 590.095007 391.838372 C 608.104845 410.082628 621.807982 436.336558 630.812901 471.045143 C 640.209338 505.753728 644.907557 533.342604 644.907557 553.811769 Z M 644.907557 553.811769 "
     transform="matrix(0.00997719, 0, 0, -0.00877845, 94.432825, 116.166295)"
     id="path21" />
  <path
     fill="none"
     stroke-width="1"
     stroke-linecap="butt"
     stroke-linejoin="miter"
     stroke="rgb(0%, 0%, 0%)"
     stroke-opacity="1"
     stroke-miterlimit="10"
     d="M 360.999878 150.999711 L 400.997428 150.999711 "
     transform="matrix(0.74946, 0, 0, 0.74946, 0.37473, 0.37473)"
     id="path23" />
  <path
     fill="none"
     stroke-width="1"
     stroke-linecap="butt"
     stroke-linejoin="miter"
     stroke="rgb(0%, 0%, 0%)"
     stroke-opacity="1"
     stroke-miterlimit="10"
     d="M 330.99911 181.00048 L 330.99911 211.001248 "
     transform="matrix(0.74946, 0, 0, 0.74946, 0.37473, 0.37473)"
     id="path25" />
  <path
     fill="none"
     stroke-width="1"
     stroke-linecap="round"
     stroke-linejoin="round"
     stroke="rgb(0%, 0%, 0%)"
     stroke-opacity="1"
     stroke-miterlimit="10"
     d="M 300.998341 120.998943 C 321.08051 122.400994 344.399384 119.211197 360.999878 120.998943 M 300.998341 120.998943 C 317.421625 121.332516 333.177762 122.129965 360.999878 120.998943 M 360.999878 120.998943 C 363.2515 143.812244 362.787624 165.630037 360.999878 181.00048 M 360.999878 120.998943 C 360.520366 144.369937 360.202429 168.668683 360.999878 181.00048 M 360.999878 181.00048 C 343.398663 182.287865 328.221068 181.349689 300.998341 181.00048 M 360.999878 181.00048 C 343.669692 181.297568 326.329081 181.50084 300.998341 181.00048 M 300.998341 181.00048 C 299.82041 165.609189 298.699811 150.129293 300.998341 120.998943 M 300.998341 181.00048 C 300.617859 160.652495 302.051183 138.782581 300.998341 120.998943 "
     transform="matrix(0.74946, 0, 0, 0.74946, 0.37473, 0.37473)"
     id="path27" />
  <g
     clip-path="url(#clip-0)"
     id="g31">
    <path
       fill-rule="nonzero"
       fill="#000000"
       fill-opacity="1"
       d="m 248.10547,117.36719 c 0,-0.19922 0.004,-0.35547 0.008,-0.45703 0.008,-0.10547 0.0117,-0.16407 0.0195,-0.17578 v -0.0352 l -0.14062,0.0352 c -0.29297,0.0664 -0.5586,0.10156 -0.79688,0.10156 -0.60156,0 -1.12109,-0.17578 -1.5625,-0.52344 -0.4414,-0.34766 -0.71875,-0.85547 -0.82422,-1.52344 -0.008,-0.0508 -0.0117,-0.17968 -0.0117,-0.39453 0,-0.625 0.15235,-1.21875 0.45704,-1.78125 0.30078,-0.5625 0.71093,-1.0625 1.22265,-1.49609 0.78125,-0.63281 1.56641,-0.94531 2.35547,-0.94531 0.24219,0 0.39453,0 0.45703,0.008 0.61328,0.0859 1.10547,0.34765 1.47656,0.78906 0.375,0.44141 0.5625,1 0.57032,1.67188 0,1.10156 -0.46875,2.10546 -1.40235,3.01171 -0.39843,0.36719 -0.8125,0.64454 -1.24218,0.83594 l -0.16016,0.0703 v 0.0469 c 0,0.008 0.0156,0.0898 0.0469,0.25 0.0312,0.15625 0.0977,0.28516 0.19922,0.38281 0.10157,0.0977 0.2461,0.14844 0.4336,0.14844 0.22265,0 0.43359,-0.0664 0.63672,-0.20313 0.20312,-0.13281 0.33593,-0.30859 0.39843,-0.52343 0.0391,-0.0859 0.0781,-0.12891 0.1211,-0.12891 0.0586,0 0.0937,0.0273 0.10547,0.0859 0,0.0469 -0.0312,0.15625 -0.0937,0.32812 -0.0625,0.17188 -0.15235,0.375 -0.26563,0.60547 -0.11328,0.23438 -0.28516,0.4336 -0.51172,0.59766 -0.22656,0.16406 -0.46875,0.2539 -0.71875,0.26562 -0.51953,0 -0.77734,-0.32812 -0.77734,-0.98047 z m 2.24609,-5.03125 c 0,-0.33594 -0.0508,-0.62891 -0.14453,-0.87891 -0.0937,-0.2539 -0.22266,-0.4375 -0.38672,-0.5625 -0.16406,-0.12109 -0.32422,-0.21094 -0.47656,-0.27344 -0.14844,-0.0625 -0.31641,-0.0937 -0.5,-0.0937 -0.30469,0 -0.61328,0.0781 -0.92969,0.23047 -0.64453,0.30078 -1.16015,0.83985 -1.55469,1.61719 -0.39062,0.77734 -0.58593,1.53516 -0.58593,2.27734 0,0.64844 0.17187,1.12891 0.51172,1.44141 0.15234,0.125 0.24218,0.19141 0.27343,0.19141 v -0.0742 c 0,-0.2461 0.10547,-0.47266 0.3125,-0.67969 0.21094,-0.20703 0.45703,-0.3125 0.74219,-0.32031 0.15625,0 0.29297,0.0352 0.40625,0.10156 0.11328,0.0664 0.19922,0.16016 0.25391,0.27344 0.0586,0.11719 0.0977,0.21484 0.11328,0.29687 0.0195,0.0781 0.0391,0.16016 0.0586,0.2461 l 0.125,-0.082 c 0.40235,-0.26954 0.7461,-0.64063 1.03125,-1.11329 0.28516,-0.46875 0.48047,-0.92578 0.58594,-1.36718 0.10937,-0.44141 0.16406,-0.85157 0.16406,-1.23047 z m -3.05078,4.13281 c 0.30078,0 0.58594,-0.0664 0.85156,-0.19141 l -0.0117,-0.0937 c -0.0234,-0.33593 -0.14062,-0.53906 -0.34765,-0.60546 -0.0781,-0.0117 -0.13672,-0.0195 -0.17969,-0.0195 -0.0195,0 -0.0391,0 -0.0586,0 -0.0195,0 -0.0312,-0.004 -0.0391,-0.008 -0.125,0 -0.2539,0.0625 -0.38671,0.1836 -0.13282,0.12109 -0.20313,0.26171 -0.20704,0.42187 0,0.20703 0.125,0.3125 0.37891,0.3125 z m 0,0"
       id="path29" />
  </g>
  <path
     fill="none"
     stroke-width="1"
     stroke-linecap="butt"
     stroke-linejoin="miter"
     stroke="rgb(0%, 0%, 0%)"
     stroke-opacity="1"
     stroke-miterlimit="10"
     d="M 200.999255 60.997406 L 131.000936 120.998943 "
     transform="matrix(0.74946, 0, 0, 0.74946, 0.37473, 0.37473)"
     id="path33" />
  <path
     fill="none"
     stroke-width="1"
     stroke-linecap="butt"
     stroke-linejoin="miter"
     stroke="rgb(0%, 0%, 0%)"
     stroke-opacity="1"
     stroke-miterlimit="10"
     d="M 261.000791 60.997406 L 330.99911 120.998943 "
     transform="matrix(0.74946, 0, 0, 0.74946, 0.37473, 0.37473)"
     id="path35" />
  <path
     fill="none"
     stroke-width="1"
     stroke-linecap="round"
     stroke-linejoin="round"
     stroke="rgb(0%, 0%, 0%)"
     stroke-opacity="1"
     stroke-miterlimit="10"
     d="M 200.999255 1.001081 C 223.932434 1.840227 242.080918 2.851371 261.000791 1.001081 M 200.999255 1.001081 C 220.940697 1.178292 242.591703 1.19914 261.000791 1.001081 M 261.000791 1.001081 C 262.439327 24.090623 260.839217 50.677475 261.000791 60.997406 M 261.000791 1.001081 C 261.850362 22.652087 260.427462 45.251693 261.000791 60.997406 M 261.000791 60.997406 C 249.101599 59.527597 234.200244 60.080079 200.999255 60.997406 M 261.000791 60.997406 C 242.450976 61.560311 221.691237 60.648196 200.999255 60.997406 M 200.999255 60.997406 C 202.729667 37.152111 202.140701 15.042441 200.999255 1.001081 M 200.999255 60.997406 C 200.71259 43.479584 200.311259 24.361651 200.999255 1.001081 "
     transform="matrix(0.74946, 0, 0, 0.74946, 0.37473, 0.37473)"
     id="path37" />
  <path
     fill-rule="nonzero"
     fill="rgb(0%, 0%, 0%)"
     fill-opacity="1"
     stroke-width="12.160957"
     stroke-linecap="butt"
     stroke-linejoin="miter"
     stroke="rgb(0%, 0%, 0%)"
     stroke-opacity="0.1216"
     stroke-miterlimit="4"
     d="M 229.838252 637.038673 C 212.02435 637.038673 201.336009 637.446374 198.169093 637.854075 C 194.606313 638.669477 193.022855 642.338786 193.022855 648.862002 C 193.022855 666.800846 196.585635 677.808772 204.107061 681.885782 C 205.294654 682.701184 263.486733 683.108885 377.89157 683.108885 C 492.69227 682.293483 554.842995 681.478081 563.947878 679.847277 C 601.159139 674.547164 632.828298 665.170042 658.163625 652.12361 C 683.498952 638.669477 701.312854 623.17684 712.001195 606.053398 C 722.689536 588.522256 729.815097 574.252721 732.982013 562.837094 C 736.148929 551.829167 738.524116 540.413539 738.91998 528.997912 C 738.91998 498.828038 729.419233 471.104371 710.021873 445.011508 C 690.624513 418.918645 668.456102 398.941296 643.120775 385.079463 C 617.785448 370.809928 595.221172 359.802001 575.823812 350.83258 C 556.822317 342.270859 544.154654 338.193849 537.820822 338.193849 L 544.946383 332.893736 C 589.679069 307.616275 611.847481 270.923186 611.847481 222.814469 C 611.847481 215.475852 610.264023 195.498503 607.097107 162.067022 C 603.534326 128.635541 601.950868 101.319575 601.950868 80.119123 L 601.950868 71.149702 C 601.950868 58.918672 602.346733 49.541549 603.138462 43.018333 C 603.534326 36.495118 607.492971 30.379603 613.826803 25.07949 C 620.556499 19.779377 629.265518 16.517769 639.953859 16.110068 C 658.55949 16.110068 673.998205 23.448686 685.874139 38.125922 C 698.145938 52.803157 706.854957 68.295795 712.001195 85.011535 C 715.168111 94.388658 717.939163 100.096472 719.918485 102.134977 C 721.897808 104.173482 727.044046 104.988884 734.961336 104.988884 C 748.420728 104.988884 755.150424 100.911874 755.150424 93.165555 C 755.150424 80.934525 746.83727 62.18028 731.002691 36.087417 C 705.667364 -1.828775 675.581663 -20.990722 641.141453 -20.990722 L 632.036569 -20.990722 C 591.262527 -20.990722 557.614046 -12.836702 531.091126 3.879039 C 504.172341 20.594779 489.525355 46.687642 487.150168 82.157628 C 487.150168 100.096472 491.900541 127.820139 502.193018 166.144032 C 512.08963 204.060224 516.840004 228.522283 516.840004 239.122509 C 516.840004 272.961691 502.588883 297.831451 474.08664 312.916388 C 464.190028 317.8088 455.481009 320.255006 449.147177 321.070407 C 442.417481 321.478108 418.665612 322.29351 377.89157 323.108912 L 309.011149 323.108912 L 276.946126 193.052297 C 255.173579 104.988884 244.089374 60.141775 244.089374 58.918672 C 244.089374 56.472466 244.485238 54.841662 244.881103 54.02626 C 245.672832 53.210858 248.048018 51.987755 252.006663 49.94925 C 255.965308 47.910745 261.507411 47.503044 269.028836 47.910745 C 276.154397 48.726147 287.238603 47.910745 301.885588 45.87224 L 333.158883 45.87224 C 337.117528 40.572128 339.09685 37.718221 339.09685 36.902819 C 339.09685 36.495118 337.909257 30.379603 335.929934 18.963975 C 333.158883 10.402254 329.991967 3.879039 326.033322 -0.197971 L 310.990472 -0.197971 C 286.842738 1.432833 243.297645 1.840534 179.959327 1.840534 C 157.395051 1.840534 136.414234 1.840534 117.016874 1.840534 C 97.619514 1.840534 82.180799 1.840534 71.096593 1.840534 C 59.616523 1.840534 52.490963 1.840534 50.115776 1.025132 C 38.635706 1.025132 33.093603 3.879039 33.093603 9.994553 C 33.093603 11.217656 33.885332 16.110068 35.864654 23.856387 C 39.427435 36.495118 42.594351 43.833735 46.157131 45.056838 C 48.532318 45.464539 53.678556 45.87224 60.804117 45.87224 L 67.137949 45.87224 C 84.95185 45.87224 105.140939 47.095343 126.913486 49.133848 C 136.414234 51.172353 142.748065 54.841662 145.914981 60.957177 C 147.894304 63.811084 172.042037 156.359208 217.962318 339.009251 C 263.882598 521.659294 286.842738 617.876727 286.842738 628.069252 C 286.842738 632.553963 267.841243 635.81557 229.838252 637.038673 Z M 630.057247 553.867672 C 630.057247 575.475824 622.931686 593.414668 609.076429 608.091903 C 594.825308 622.769139 566.323065 632.146262 523.173836 635.81557 C 521.590378 635.81557 514.068953 635.81557 499.817831 635.81557 C 485.962574 635.81557 473.294911 636.223271 461.814841 637.038673 L 440.042294 637.038673 C 408.769 637.038673 390.559233 633.777066 385.808859 626.846149 C 385.412995 624.807644 373.932925 580.775937 352.160378 493.935627 C 329.991967 407.503017 318.907761 363.063609 318.907761 361.025104 C 318.907761 360.209702 341.867902 359.802001 388.184046 359.802001 C 440.042294 360.617403 474.482504 363.063609 491.900541 367.140619 C 534.653906 373.663835 567.906523 393.233482 592.054256 425.849561 C 602.742597 441.342199 611.847481 461.319547 618.973041 486.189308 C 626.494467 510.651367 630.057247 533.482622 630.057247 553.867672 Z M 630.057247 553.867672 "
     transform="matrix(0.00986764, 0, 0, -0.00958116, 169.380475, 26.779353)"
     id="path39" />
  <g
     clip-path="url(#clip-1)"
     id="g43">
    <path
       fill="none"
       stroke-width="1"
       stroke-linecap="round"
       stroke-linejoin="round"
       stroke="#000000"
       stroke-opacity="1"
       stroke-miterlimit="10"
       d="m 101.00017,211.00125 c 21.79173,0.28666 42.77038,1.49065 60.00153,0 m -60.00153,0 c 13.45239,0.0313 26.9986,-0.72969 60.00153,0 m 0,0 c 0.62024,15.37044 -2.12131,26.738 0,59.99632 m 0,-59.99632 c 0.17722,19.93623 -0.34399,40.83669 0,59.99632 m 0,0 c -22.20348,-0.22933 -44.81351,1.82423 -60.00153,0 m 60.00153,0 c -21.76046,0.82351 -43.96394,0.80266 -60.00153,0 m 0,0 c 0.64108,-20.30629 0.58896,-41.0556 0,-59.99632 m 0,59.99632 c 1.00072,-14.69808 0.76096,-31.05882 0,-59.99632"
       transform="matrix(0.74946,0,0,0.74946,0.37473,0.37473)"
       id="path41" />
  </g>
  <path
     fill-rule="nonzero"
     fill="rgb(0%, 0%, 0%)"
     fill-opacity="1"
     stroke-width="12.339271"
     stroke-linecap="butt"
     stroke-linejoin="miter"
     stroke="rgb(0%, 0%, 0%)"
     stroke-opacity="0.1176"
     stroke-miterlimit="4"
     d="M 287.096178 627.962663 C 287.096178 632.738497 267.816067 635.777665 230.059182 637.080165 C 213.992422 637.080165 203.549028 637.514332 199.130669 637.948499 C 194.310642 638.816832 191.900628 641.856 191.900628 647.934335 C 191.900628 648.802669 192.703966 652.276003 193.908973 658.788505 C 197.925663 672.247675 201.139014 679.62851 203.147359 680.931011 C 205.155704 682.233511 269.824411 683.101845 397.153481 683.101845 C 523.679212 682.233511 591.159602 681.365178 599.99632 680.062677 C 642.573233 672.681842 678.321773 656.183504 706.840271 631.00183 C 735.760438 605.820157 750.220522 571.955147 751.02386 529.840969 C 751.02386 478.609288 728.932066 431.719275 685.150146 389.17093 C 638.958212 343.583417 579.511202 314.928409 506.809115 303.205906 C 502.390756 302.337572 467.445554 301.469239 401.973509 301.035072 L 307.179627 301.035072 L 277.054453 182.073372 C 256.971004 104.791684 246.929279 63.545839 246.929279 59.204172 C 246.929279 56.165004 247.330948 54.862504 248.134286 53.99417 C 248.535955 53.125837 250.945969 51.823336 254.962659 50.086669 C 258.979349 47.915835 264.602715 47.481668 271.832756 47.915835 C 279.464467 48.784169 290.30953 47.915835 305.171282 46.179168 L 336.099795 46.179168 C 340.116484 40.100833 342.124829 36.193332 342.124829 34.890832 C 342.124829 24.470829 339.714816 14.484993 334.894788 4.933323 C 331.681436 1.459989 326.459739 0.157489 318.828028 0.157489 C 316.819683 0.157489 304.769613 0.157489 281.874481 1.025822 C 259.381018 1.459989 226.042492 1.894156 181.858903 1.894156 C 140.486997 1.894156 109.156816 1.894156 87.065022 1.894156 C 64.973227 1.894156 52.923158 1.459989 50.914813 1.025822 C 38.864743 1.025822 32.839708 4.499156 32.839708 11.011658 C 32.839708 12.314159 34.044715 17.089993 36.05306 24.904995 C 38.864743 35.759165 41.274757 41.8375 44.08644 43.14 C 46.496454 44.442501 54.529834 45.310834 66.981572 46.179168 C 85.056677 46.179168 105.140126 47.047502 126.830252 48.784169 C 136.470307 50.955003 142.495342 54.862504 146.110363 60.940839 C 148.118708 63.545839 171.817178 156.457532 218.009112 338.807582 C 263.799377 521.5918 287.096178 617.976827 287.096178 627.962663 Z M 644.983247 554.154309 C 644.983247 562.837645 644.179909 569.784313 642.974902 574.994315 C 641.769895 580.204316 638.556543 587.585152 634.138184 597.136821 C 629.318156 606.254323 620.883108 613.635159 608.833038 618.84516 C 597.184637 624.489328 580.716209 629.69933 559.829421 634.909331 C 555.411062 635.777665 528.49924 636.211832 479.897293 637.080165 C 468.650561 637.080165 457.00216 637.080165 444.952091 637.080165 C 432.902021 637.080165 423.261965 636.645998 416.031923 636.211832 C 408.801882 635.343498 404.785192 635.343498 403.981854 636.211832 C 395.145136 635.343498 389.52177 632.304331 385.906749 627.094329 C 384.701742 623.186828 378.275038 597.136821 367.028307 549.812641 C 355.781575 502.488461 344.133174 456.466782 332.083105 412.18177 C 320.033035 367.46259 314.008 344.451751 314.008 344.017584 C 314.008 342.715084 340.919822 341.84675 395.145136 341.84675 L 430.090338 341.84675 C 504.80077 341.84675 557.821076 358.779255 589.954595 392.210097 C 608.0297 410.010936 621.686446 436.49511 630.924832 470.794286 C 640.163219 505.527629 644.983247 533.314303 644.983247 554.154309 Z M 644.983247 554.154309 "
     transform="matrix(0.00972505, 0, 0, -0.00899712, 92.934539, 183.767042)"
     id="path45" />
  <path
     fill-rule="nonzero"
     fill="rgb(0%, 0%, 0%)"
     fill-opacity="1"
     stroke-width="17.452999"
     stroke-linecap="butt"
     stroke-linejoin="miter"
     stroke="rgb(0%, 0%, 0%)"
     stroke-opacity="0.0824"
     stroke-miterlimit="4"
     d="M 109.23485 429.16431 C 91.054643 429.16431 76.851356 435.305282 66.056858 446.97313 C 55.26236 459.255076 50.149177 473.379313 50.149177 491.188133 C 50.149177 538.473622 67.761253 579.618138 102.985404 614.007585 C 138.209555 648.397031 182.52381 666.205852 234.791906 666.205852 C 295.581973 666.205852 346.145675 647.168837 387.051141 609.708904 C 427.388475 572.863068 448.40934 524.349385 448.977471 464.781951 C 448.977471 436.533477 442.159893 408.8991 429.09287 383.107015 C 415.457714 356.700833 399.550033 334.593332 380.801694 314.94222 C 362.053356 295.905205 335.919308 270.727217 301.263288 241.250549 C 276.833635 220.371242 243.882009 189.666379 201.272149 149.13596 L 142.186476 93.253109 L 217.747962 92.024915 C 322.852284 92.024915 378.529168 93.867207 384.778615 96.937693 C 389.891798 98.165887 397.845639 128.256653 409.208268 185.981795 L 409.208268 189.052282 L 448.977471 189.052282 L 448.977471 185.981795 C 448.40934 184.139504 443.864288 153.434641 435.910447 95.095401 C 427.956607 36.142064 422.843423 5.437201 421.139029 2.980812 L 421.139029 -0.089674 L 50.149177 -0.089674 L 50.149177 31.229286 C 50.149177 35.527967 51.853572 40.440745 55.830492 45.96762 C 59.807412 51.494496 70.033779 63.162344 85.94146 80.971164 C 105.25793 102.464568 121.733743 120.887486 135.93703 136.854015 C 142.186476 143.609085 153.549105 155.89103 170.024918 173.69985 C 186.500731 192.122768 197.86336 204.404713 204.112806 211.159783 C 209.794121 217.914853 219.452356 228.968604 233.087511 243.706938 C 246.154535 259.059369 255.81277 270.727217 260.925954 278.096384 C 266.607268 285.465551 273.992977 295.291107 284.219344 308.18715 C 293.877579 320.469095 301.263288 331.522846 305.240208 340.120207 C 309.217129 348.717569 313.762181 358.543125 320.011627 368.982779 C 326.261073 379.422432 330.237993 390.476183 333.078651 400.915836 C 335.919308 411.969587 338.191834 421.795143 339.896228 431.006602 C 342.168754 440.218061 342.736886 451.271811 342.736886 464.167854 C 342.736886 505.926467 331.942388 542.158205 309.217129 572.863068 C 286.49187 603.567931 254.108376 618.920363 212.066647 618.920363 C 189.909519 618.920363 170.593049 613.393488 154.117237 601.72564 C 137.073293 590.671889 125.710663 579.618138 118.893085 569.178485 C 112.075508 558.124734 109.23485 551.983762 109.23485 550.14147 C 109.23485 549.527373 110.939245 548.913275 113.779902 548.913275 C 126.278795 548.913275 138.209555 544.614595 151.276579 534.789038 C 163.775472 525.57758 170.024918 510.225148 170.024918 488.731744 C 170.024918 472.151118 164.911735 458.026881 154.117237 446.97313 C 143.322739 435.91938 128.55132 429.778407 109.23485 429.16431 Z M 109.23485 429.16431 "
     transform="matrix(0.00687561, 0, 0, -0.00636096, 99.498944, 185.116617)"
     id="path47" />
  <path
     fill="none"
     stroke-width="1"
     stroke-linecap="round"
     stroke-linejoin="round"
     stroke="rgb(0%, 0%, 0%)"
     stroke-opacity="1"
     stroke-miterlimit="10"
     d="M 1.001081 120.998943 C 21.651367 119.529134 45.449752 120.931186 60.997406 120.998943 M 1.001081 120.998943 C 17.971634 122.088269 35.411274 120.540279 60.997406 120.998943 M 60.997406 120.998943 C 62.00855 136.650838 62.128428 152.787457 60.997406 181.00048 M 60.997406 120.998943 C 60.517894 139.220396 60.887952 158.421722 60.997406 181.00048 M 60.997406 181.00048 C 40.49827 182.011624 18.180117 181.558173 1.001081 181.00048 M 60.997406 181.00048 C 48.029735 182.079381 36.401571 180.937935 1.001081 181.00048 M 1.001081 181.00048 C -0.651151 164.227986 -0.171639 148.841907 1.001081 120.998943 M 1.001081 181.00048 C 0.0889657 169.132559 0.0212086 155.508166 1.001081 120.998943 "
     transform="matrix(0.74946, 0, 0, 0.74946, 0.37473, 0.37473)"
     id="path49" />
  <path
     fill-rule="nonzero"
     fill="rgb(0%, 0%, 0%)"
     fill-opacity="1"
     stroke-width="12.341613"
     stroke-linecap="butt"
     stroke-linejoin="miter"
     stroke="rgb(0%, 0%, 0%)"
     stroke-opacity="0.1176"
     stroke-miterlimit="4"
     d="M 287.118715 628.155237 C 287.118715 632.496905 267.834945 635.536072 230.070894 636.838572 C 214.001085 636.838572 203.555709 637.272739 199.136512 638.141073 C 194.315569 638.57524 191.905098 642.048574 191.905098 648.126909 C 191.905098 648.561076 192.708588 652.468577 193.913824 658.981079 C 197.931276 672.440249 201.145238 679.821084 203.153964 681.123585 C 205.16269 682.426085 269.843671 682.860252 397.196906 682.860252 C 523.74665 682.426085 591.239848 681.123585 600.078242 679.821084 C 642.663236 672.874416 678.418561 656.376078 706.942471 631.194404 C 735.466382 605.578564 750.330955 572.147721 751.134446 530.033543 C 751.134446 478.801862 729.038458 431.477682 684.846484 388.929337 C 639.047529 343.775991 579.589236 315.120983 506.873351 302.964313 C 502.454154 302.530146 467.502319 301.661813 402.017848 300.793479 L 306.804231 300.793479 L 277.075085 181.831779 C 256.987824 104.550091 246.944193 63.738413 246.944193 58.962579 C 246.944193 56.357578 247.345938 54.620911 248.149429 54.186744 C 248.551174 53.318411 250.961645 52.01591 254.979097 49.845076 C 258.99655 48.108409 264.620983 47.240075 271.852397 48.108409 C 279.485556 48.542576 290.332677 48.108409 305.19725 45.937575 L 336.131632 45.937575 C 340.149084 39.85924 342.15781 36.385906 342.15781 35.083405 C 342.15781 24.229236 339.747339 14.2434 334.926396 5.125897 C 331.712435 1.652563 326.489747 -0.0841043 318.856588 -0.0841043 C 316.847861 -0.0841043 304.795505 0.350062 281.896027 0.784229 C 259.398295 1.652563 226.053442 2.08673 181.861467 2.08673 C 140.481709 2.08673 109.145582 2.08673 87.049595 2.08673 C 64.953608 2.08673 52.901251 1.652563 50.892525 0.784229 C 38.840168 0.784229 32.81399 4.257564 32.81399 11.204232 C 32.81399 12.506733 34.019226 16.8484 36.027952 25.097569 C 38.840168 35.517572 41.25064 41.595907 44.062856 42.898408 C 46.473328 44.200908 54.508232 45.503408 66.962334 45.937575 C 85.040869 45.937575 105.12813 46.805909 126.822372 48.976743 C 136.464257 51.147577 142.490436 55.055078 146.106142 61.133413 C 148.114869 63.738413 171.817837 156.215939 218.018537 339.000156 C 263.817492 521.784374 287.118715 618.169401 287.118715 628.155237 Z M 645.073707 553.912716 C 645.073707 562.596052 644.270217 569.54272 643.064981 575.186889 C 641.859745 580.39689 638.645784 587.777725 633.824841 596.895228 C 629.405644 606.446897 620.968994 613.827733 608.916637 619.037734 C 596.864281 624.247736 580.794472 629.457737 559.90372 635.101905 C 555.484523 635.536072 528.567593 636.404406 479.956421 636.838572 C 468.707555 636.838572 457.056944 636.838572 445.004587 636.838572 C 432.95223 636.838572 423.310345 636.838572 416.078931 635.970239 C 408.847517 635.536072 404.830065 635.536072 404.026574 635.970239 C 395.18818 635.536072 389.162001 632.496905 385.94804 626.852736 C 384.742804 622.945235 378.31488 597.329395 367.066014 550.005215 C 355.817148 502.681035 344.166537 456.659356 332.11418 411.940177 C 320.061823 367.220998 314.035645 344.644325 314.035645 344.210158 C 314.035645 342.473491 340.952575 342.039324 395.18818 342.039324 L 430.140014 342.039324 C 504.864625 342.039324 557.894994 358.537662 590.034612 391.968504 C 608.113147 410.20351 621.772484 436.253517 631.012624 470.98686 C 640.252765 505.720203 645.073707 533.506877 645.073707 553.912716 Z M 645.073707 553.912716 "
     transform="matrix(0.0097232, 0, 0, -0.00899712, 17.989537, 116.31565)"
     id="path51" />
  <path
     fill-rule="nonzero"
     fill="rgb(0%, 0%, 0%)"
     fill-opacity="1"
     stroke-width="17.456313"
     stroke-linecap="butt"
     stroke-linejoin="miter"
     stroke="rgb(0%, 0%, 0%)"
     stroke-opacity="0.0824"
     stroke-miterlimit="4"
     d="M 212.810776 578.047096 L 199.741271 573.134318 C 190.649441 569.449735 177.579936 566.379248 159.964516 562.694665 C 142.917336 559.624179 123.597197 557.16779 102.004102 555.939595 L 83.252203 555.939595 L 83.252203 601.996889 L 102.004102 601.996889 C 133.257266 603.225084 162.237474 608.137862 188.944723 616.735224 C 215.651973 625.946683 234.403872 633.929947 245.200419 641.299114 C 255.428728 648.054184 265.088797 655.423351 273.044148 662.792518 C 274.180627 665.248907 278.158302 665.863004 284.977174 665.863004 C 291.227807 665.863004 296.910201 664.020713 302.024355 659.722032 L 302.024355 361.270764 L 303.160834 60.977204 C 307.706748 56.064426 311.684424 53.608037 315.09386 51.765746 C 318.503296 50.537551 326.458647 49.309357 338.959913 48.081162 C 351.461179 46.852968 372.486035 46.23887 400.898003 46.23887 L 427.037013 46.23887 L 427.037013 0.181576 L 416.240465 0.181576 C 402.034481 2.023868 349.188221 3.252062 257.133446 3.252062 C 166.215149 3.252062 113.937128 2.023868 99.731145 0.181576 L 87.798118 0.181576 L 87.798118 46.23887 L 113.937128 46.23887 C 128.711352 46.23887 141.212617 46.23887 152.009165 46.23887 C 162.805713 46.23887 170.761064 46.23887 177.011697 46.852968 C 183.26233 47.467065 188.376484 48.695259 192.922399 49.923454 C 197.468314 51.151648 200.30951 51.765746 200.87775 51.765746 C 201.445989 51.765746 203.718946 53.608037 207.128383 57.292621 C 210.537819 60.363107 212.242537 61.591302 212.810776 60.977204 Z M 212.810776 578.047096 "
     transform="matrix(0.0068743, 0, 0, -0.00636096, 24.552699, 117.665217)"
     id="path53" />
  <g
     clip-path="url(#clip-2)"
     id="g57">
    <path
       fill="none"
       stroke-width="1"
       stroke-linecap="round"
       stroke-linejoin="round"
       stroke="#000000"
       stroke-opacity="1"
       stroke-miterlimit="10"
       d="m 300.99834,211.00125 c 19.51405,1.97017 42.12929,-0.42218 60.00154,0 m -60.00154,0 c 22.47973,-1.06327 43.83365,0.60981 60.00154,0 m 0,0 c 0.19806,19.93102 -0.8183,36.84945 0,59.99632 m 0,-59.99632 c 0.84957,18.50812 0.11988,35.99988 0,59.99632 m 0,0 c -18.8,1.04242 -36.83903,-1.90762 -60.00154,0 m 60.00154,0 c -14.18209,1.34472 -29.23981,1.09454 -60.00154,0 m 0,0 c 1.26133,-13.2387 -1.73041,-27.24878 0,-59.99632 m 0,59.99632 c -0.8183,-21.03598 -0.71927,-41.90517 0,-59.99632"
       transform="matrix(0.74946,0,0,0.74946,0.37473,0.37473)"
       id="path55" />
  </g>
  <path
     fill-rule="nonzero"
     fill="rgb(0%, 0%, 0%)"
     fill-opacity="1"
     stroke-width="13.07123"
     stroke-linecap="butt"
     stroke-linejoin="miter"
     stroke="rgb(0%, 0%, 0%)"
     stroke-opacity="0.1098"
     stroke-miterlimit="4"
     d="M 398.84857 -80.088666 C 398.84857 -57.962886 399.305679 -41.368551 400.219898 -29.880165 C 400.677007 -18.817275 401.134116 -12.434838 402.048335 -11.158351 L 402.048335 -6.903393 L 386.963729 -11.158351 C 356.337408 -18.391779 328.453743 -21.795745 302.855624 -21.795745 C 239.774545 -21.795745 184.464324 -3.073931 137.839179 34.795193 C 91.214034 73.089813 62.41615 128.404264 50.988418 201.164042 C 50.531309 206.269992 50.0742 220.736848 50.0742 244.139116 C 50.0742 311.792944 66.073024 376.468303 98.070673 438.16519 C 130.068321 499.436582 173.036592 553.474546 226.975486 601.130073 C 309.712263 669.634893 392.44904 704.100051 476.100036 704.100051 C 501.241045 704.100051 517.23987 703.674555 524.096509 702.823564 C 588.548915 693.462657 640.659372 664.95444 679.970769 616.873417 C 719.282165 568.792394 739.394973 508.371993 739.852082 435.18672 C 739.852082 315.196911 690.484282 205.844496 592.205789 107.129476 C 550.151737 67.132872 506.269247 36.497177 461.01543 16.073379 L 444.102387 7.988959 L 444.102387 2.88301 C 444.102387 2.457514 445.473715 -6.477897 449.130589 -23.923224 C 452.330354 -41.368551 459.186993 -55.409911 470.157615 -66.047306 C 480.671128 -76.6847 496.212844 -81.79065 515.868542 -81.79065 C 539.181115 -81.79065 561.579469 -74.557221 583.063604 -60.090365 C 604.54774 -45.198013 618.261018 -26.476198 625.117657 -3.073931 C 628.774531 6.286976 633.345623 10.96743 637.916716 10.96743 C 643.859137 10.96743 647.516011 7.988959 648.887338 2.032019 C 648.887338 -3.499427 645.687574 -15.413308 638.830935 -34.135122 C 632.431405 -52.856937 622.83211 -74.557221 610.947269 -100.086968 C 599.062428 -125.191219 580.778058 -146.891503 557.008376 -165.187822 C 532.781585 -183.058645 507.640575 -192.845047 481.128238 -194.121535 C 426.275126 -194.121535 398.84857 -158.379889 398.84857 -86.896599 Z M 636.088279 467.949895 C 636.088279 504.542531 631.060077 536.454715 621.003673 564.11194 C 610.947269 591.34367 597.233991 611.767467 579.863839 624.957836 C 562.493687 638.148206 546.037754 648.360104 530.038929 655.168037 C 514.040105 661.550473 496.212844 664.95444 477.014254 664.95444 C 445.016606 664.95444 412.561848 656.87002 379.192871 639.850189 C 311.083591 607.51251 256.230479 548.794092 215.090645 464.120433 C 173.493702 379.446773 152.923785 296.475096 152.923785 216.056395 C 152.923785 145.424096 171.208155 93.088115 206.862678 59.048453 C 222.861502 45.007092 232.460797 38.19916 236.117671 38.19916 L 236.117671 45.858084 C 236.117671 72.664318 247.088293 97.343073 269.029538 119.894349 C 290.970783 142.871121 317.026011 154.359507 347.195223 155.210498 C 363.651156 155.210498 377.821544 151.381036 390.163494 144.147608 C 402.048335 136.488684 411.19052 126.702281 417.13294 113.937408 C 423.075361 101.172535 427.189344 90.53514 429.017781 82.025225 C 430.846218 73.515309 433.131765 64.154402 434.960202 54.793495 L 448.216371 64.154402 C 490.727532 93.513611 526.839164 133.510214 557.008376 184.995203 C 587.177588 236.480192 607.747504 285.837702 619.175236 333.918725 C 630.145859 381.999748 636.088279 426.676804 636.088279 467.949895 Z M 313.826246 18.200858 C 345.823895 18.200858 375.993107 25.008791 403.876772 39.050151 L 402.962553 48.836554 C 400.219898 85.854687 387.877947 107.554971 365.936703 114.7884 C 358.165845 116.490383 351.766315 116.915878 347.195223 116.915878 C 344.909676 116.915878 343.081239 116.915878 340.795693 116.915878 C 338.967256 116.915878 337.595928 117.341374 337.138819 118.192366 C 323.88265 118.192366 310.169372 111.384433 295.998985 98.194064 C 281.828598 84.578199 274.514849 69.260351 274.05774 51.815025 C 274.05774 29.263748 287.313909 18.200858 313.826246 18.200858 Z M 313.826246 18.200858 "
     transform="matrix(0.00854555, 0, 0, -0.00918047, 242.825995, 184.085061)"
     id="path59" />
  <path
     fill-rule="nonzero"
     fill="rgb(0%, 0%, 0%)"
     fill-opacity="1"
     stroke-width="18.488302"
     stroke-linecap="butt"
     stroke-linejoin="miter"
     stroke="rgb(0%, 0%, 0%)"
     stroke-opacity="0.0784"
     stroke-miterlimit="4"
     d="M 213.304127 577.943265 L 199.726625 573.128603 C 190.674957 569.517606 177.097454 566.508442 160.287214 562.897446 C 142.830425 559.888282 123.433994 557.480951 102.097919 556.277286 L 82.701487 556.277286 L 82.701487 602.016574 L 102.097919 602.016574 C 133.132209 603.22024 162.226857 608.034902 188.735313 617.062393 C 215.890318 625.488051 234.640202 633.91371 244.984965 641.135703 C 255.976277 648.357696 265.027945 655.579688 272.786517 662.801681 C 274.079613 665.209012 278.605447 665.810845 285.070924 665.810845 C 290.889853 665.810845 296.708783 664.005347 301.881165 659.792518 L 301.881165 361.283477 L 303.17426 60.968938 C 307.700094 56.154276 311.579381 53.145113 314.812119 51.941447 C 318.044858 50.737782 326.449978 49.534116 338.734385 47.728618 C 351.665339 46.524952 372.354866 45.92312 400.802966 45.92312 L 427.311423 45.92312 L 427.311423 0.183831 L 416.320111 0.183831 C 402.096062 1.989329 349.079148 3.192995 257.269372 3.192995 C 166.106143 3.192995 113.735778 1.989329 100.158276 0.183831 L 87.873869 0.183831 L 87.873869 45.92312 L 113.735778 45.92312 C 128.606375 45.92312 141.53733 45.92312 151.882093 45.92312 C 162.873405 45.92312 171.278525 46.524952 177.097454 47.126785 C 182.916384 47.728618 188.088766 48.932283 193.261148 50.135949 C 197.786982 51.339614 200.373172 51.941447 201.01972 51.941447 C 201.666268 51.941447 203.605911 53.746945 206.83865 56.756109 C 210.071388 60.367105 212.011031 61.570771 213.304127 60.968938 Z M 213.304127 577.943265 "
     transform="matrix(0.0060417, 0, 0, -0.00649059, 249.86753, 185.462131)"
     id="path61" />
  <path
     fill="none"
     stroke-width="1"
     stroke-linecap="round"
     stroke-linejoin="round"
     stroke="rgb(0%, 0%, 0%)"
     stroke-opacity="1"
     stroke-miterlimit="10"
     d="M 400.997428 120.998943 C 423.36249 121.207426 444.810225 119.01835 460.998965 120.998943 M 400.997428 120.998943 C 415.002304 119.789739 430.242444 120.681005 460.998965 120.998943 M 460.998965 120.998943 C 460.378727 141.211413 462.218593 162.898904 460.998965 181.00048 M 460.998965 120.998943 C 459.982608 137.792285 460.149395 153.590118 460.998965 181.00048 M 460.998965 181.00048 C 443.89811 179.280491 430.148627 181.829201 400.997428 181.00048 M 460.998965 181.00048 C 443.601021 181.40181 427.10998 180.041456 400.997428 181.00048 M 400.997428 181.00048 C 401.179851 159.302564 402.712205 138.652279 400.997428 120.998943 M 400.997428 181.00048 C 401.471728 162.779026 401.732332 144.661814 400.997428 120.998943 "
     transform="matrix(0.74946, 0, 0, 0.74946, 0.37473, 0.37473)"
     id="path63" />
  <path
     fill-rule="nonzero"
     fill="rgb(0%, 0%, 0%)"
     fill-opacity="1"
     stroke-width="13.07123"
     stroke-linecap="butt"
     stroke-linejoin="miter"
     stroke="rgb(0%, 0%, 0%)"
     stroke-opacity="0.1098"
     stroke-miterlimit="4"
     d="M 399.224751 -79.9002 C 399.224751 -58.199915 399.224751 -41.180084 400.138969 -30.117194 C 400.596079 -18.628808 401.510297 -12.246371 401.967406 -10.969884 L 401.967406 -7.140422 L 386.882801 -10.969884 C 356.25648 -18.203312 328.372814 -22.032774 302.774696 -22.032774 C 239.693617 -22.032774 184.840505 -2.885464 138.21536 34.98366 C 91.133105 72.852784 62.335222 128.167235 50.90749 200.927013 C 50.450381 206.458458 49.993271 220.499819 49.993271 243.902087 C 49.993271 311.981411 65.992096 376.656769 97.989744 437.928161 C 129.987393 499.199553 172.955664 553.663012 226.894557 600.893044 C 309.631335 669.82336 392.825221 703.863022 476.019107 703.863022 C 501.160117 703.863022 517.158941 703.863022 524.01558 703.01203 C 588.467987 693.651123 640.578443 665.142906 679.88984 617.061883 C 719.201237 568.98086 739.314045 508.134964 740.228263 434.949691 C 740.228263 314.959881 690.860463 205.607467 592.124861 106.892446 C 550.070809 66.895843 506.188319 36.685643 460.934502 15.83635 L 444.021459 8.177426 L 444.021459 3.071477 C 444.021459 2.220485 445.849896 -6.714926 449.049661 -24.160253 C 452.249426 -41.180084 459.106065 -55.221445 470.076687 -65.858839 C 480.5902 -76.496234 496.131915 -82.027679 515.787614 -82.027679 C 539.557295 -82.027679 561.49854 -74.794251 582.982676 -59.901898 C 604.466811 -45.435042 618.180089 -26.287732 625.036728 -2.885464 C 629.150712 6.475443 633.264695 11.155896 637.835788 11.155896 C 643.778208 11.155896 647.892192 8.177426 648.80641 1.794989 C 648.80641 -3.31096 645.606645 -15.224842 639.207115 -33.946656 C 632.350477 -52.66847 623.208291 -74.794251 610.866341 -99.898501 C 598.9815 -125.428248 581.154239 -147.128533 556.927448 -164.999355 C 533.157766 -182.870178 507.559647 -192.656581 481.047309 -193.933068 C 426.194197 -193.933068 399.224751 -158.191423 399.224751 -87.133628 Z M 636.007351 468.138361 C 636.007351 504.730998 630.979149 536.643181 620.922745 563.874911 C 610.866341 591.532137 597.153063 611.530438 579.782911 625.146303 C 562.869868 638.336672 545.956825 648.123075 529.958001 654.931007 C 513.959177 661.73894 496.131915 665.142906 476.933326 665.142906 C 444.935677 665.142906 412.480919 656.63299 379.111943 640.038655 C 311.002662 607.27548 256.14955 548.557063 215.009716 463.883403 C 173.869883 379.209744 152.842856 296.663563 152.842856 215.819365 C 152.842856 145.187066 171.127227 92.851086 206.78175 58.811423 C 222.780574 45.195559 232.836978 37.96213 236.036743 37.96213 L 236.036743 46.04655 C 236.036743 72.852784 247.007365 97.531539 268.94861 120.082815 C 290.889855 142.634092 316.945083 154.122478 347.114294 154.973469 C 363.570228 154.973469 378.197725 151.144007 390.082565 143.910579 C 401.967406 136.677151 411.109592 126.465252 417.052012 114.125874 C 422.994433 101.361001 427.108416 90.723607 428.936853 81.788195 C 431.222399 73.27828 433.050836 64.342869 434.879274 54.981961 L 448.135442 63.917373 C 490.646604 93.276581 527.215345 133.69868 556.927448 185.183669 C 587.096659 236.243163 607.666576 286.026168 619.094308 334.107191 C 630.522039 382.188214 636.007351 426.865271 636.007351 468.138361 Z M 314.202427 17.963829 C 346.200076 17.963829 375.912178 25.197257 403.795843 38.813122 L 402.881625 49.025021 C 400.138969 85.617657 387.797019 107.743438 365.855774 114.976866 C 358.084917 116.253353 351.685387 117.104345 347.114294 117.104345 C 344.828748 117.104345 343.000311 117.104345 341.171874 117.104345 C 338.886328 117.104345 337.515 117.529841 337.057891 117.955336 C 323.801722 117.955336 310.088444 111.147404 295.918057 97.957035 C 282.204779 84.766666 274.89103 69.448818 273.976812 52.003491 C 273.976812 29.452215 287.232981 17.963829 314.202427 17.963829 Z M 314.202427 17.963829 "
     transform="matrix(0.00854555, 0, 0, -0.00918047, 317.771999, 116.633666)"
     id="path65" />
  <path
     fill-rule="nonzero"
     fill="rgb(0%, 0%, 0%)"
     fill-opacity="1"
     stroke-width="18.488302"
     stroke-linecap="butt"
     stroke-linejoin="miter"
     stroke="rgb(0%, 0%, 0%)"
     stroke-opacity="0.0784"
     stroke-miterlimit="4"
     d="M 109.095874 428.955686 C 90.992537 428.955686 76.768488 434.974014 65.777176 447.010668 C 55.432413 459.047323 50.260031 473.491309 50.260031 490.944459 C 50.260031 538.489245 67.71682 579.413872 103.276944 613.718338 C 138.190521 648.624637 182.155766 666.077787 235.172679 666.077787 C 295.948165 666.077787 346.378888 647.420972 387.111394 610.107342 C 427.8439 572.793712 448.533428 524.04526 449.179975 465.065651 C 449.179975 436.177679 442.06795 409.095206 429.136996 383.216398 C 415.559494 356.735757 399.395801 334.467945 381.292464 315.209298 C 362.542581 295.95065 335.387576 271.275507 301.120547 241.18387 C 277.198281 220.119724 243.5778 189.426254 200.90565 149.103461 L 142.069807 93.133015 L 217.715891 91.92935 C 322.456622 91.92935 378.059726 93.734848 385.171751 96.744012 C 389.697585 98.54951 397.456158 128.039315 409.094017 185.815258 L 409.094017 188.824422 L 449.179975 188.824422 L 449.179975 185.815258 C 448.533428 184.00976 444.007593 153.918123 436.249021 94.938514 C 427.8439 36.560738 423.318066 5.867268 420.731876 2.858104 L 420.731876 -0.15106 L 50.260031 -0.15106 L 50.260031 31.144243 C 50.260031 35.958905 52.199674 40.773567 56.078961 46.190061 C 59.958247 51.606556 70.30301 63.041378 85.820156 81.096361 C 105.216587 102.160507 122.026828 120.817322 136.250878 137.066806 C 142.069807 143.686966 153.061119 155.723621 169.87136 173.778603 C 186.6816 191.833585 198.319459 204.472073 204.138389 211.092233 C 209.957318 217.712393 219.655534 228.545383 233.233036 244.193034 C 246.163991 259.238853 255.862206 270.673675 261.034588 277.895668 C 266.20697 285.117661 273.965543 295.348817 284.310306 307.987305 C 294.008522 320.625792 301.120547 331.458782 304.999833 339.88444 C 308.87912 348.911931 314.051501 358.541255 319.870431 368.772412 C 325.68936 379.605401 330.215194 390.438391 332.801385 401.27138 C 335.387576 411.502537 337.973767 421.733693 339.91341 430.761184 C 341.853053 440.390508 343.146149 451.223498 343.146149 463.861985 C 343.146149 505.990277 331.50829 542.100242 308.87912 572.793712 C 286.249949 603.487182 253.922563 619.134833 211.896961 619.134833 C 189.914339 619.134833 170.517907 613.116506 153.707666 602.283516 C 137.543973 590.848694 125.906114 579.413872 118.79409 569.182715 C 112.328612 558.349726 109.095874 551.729566 109.095874 549.924068 C 109.095874 549.322235 110.388969 548.720402 114.268255 548.720402 C 125.906114 548.720402 138.190521 544.507573 151.121476 534.878249 C 163.405882 525.850758 169.87136 510.203107 169.87136 489.13896 C 169.87136 472.287644 164.698978 458.445491 153.707666 447.010668 C 143.362903 435.575846 128.492305 429.557519 109.095874 428.955686 Z M 109.095874 428.955686 "
     transform="matrix(0.0060417, 0, 0, -0.00649059, 324.813531, 118.010738)"
     id="path67" />
</svg>
