<?xml version="1.0" encoding="UTF-8" standalone="no"?>
<svg 
   width="249.12pt"
   height="183.12pt"
   viewBox="0 0 249.12 183.12"
   version="1.1"
   id="svg50"
   xmlns="http://www.w3.org/2000/svg"
   xmlns:svg="http://www.w3.org/2000/svg" content="%3Cmxfile%20host%3D%22app.diagrams.net%22%20modified%3D%222023-01-18T14%3A58%3A14.565Z%22%20agent%3D%225.0%20(X11%3B%20Linux%20x86_64)%20AppleWebKit%2F537.36%20(KHTML%2C%20like%20Gecko)%20Chrome%2F108.0.0.0%20Safari%2F537.36%22%20version%3D%2220.8.1%22%20etag%3D%22PkfH68I3csTBlu23eXgl%22%20type%3D%22google%22%3E%3Cdiagram%20id%3D%22sW16sbxJDWm1MhWyTwTw%22%20name%3D%22Page-1%22%3E3Zddb5swFIZ%2FDZed%2FMHn5cLaTlNbqcum7daBE7BqMHLcQvbrZ4r56oK0SqkS5Ybg9xx8nPd5kRKHxkVzq1iV38sUhENQ2jj0i0NIFBBzbYV9J7gR6oRM8bST8Cis%2BR%2BwYt%2F2zFPYzRq1lELzai4msiwh0TONKSXredtWivnUimV2IhqFdcIE%2FNP2i6c6tyr2o7HwFXiW29EhCbpCwYbmTtjlLJX1ZBa9dmispNTdXdHEIFrvel%2B6A90sVIeDKSj1%2FzwgN49xVMUPcl01qvz2eJclP68wtXxemHi2X9keV%2B97D8w%2Bxm6zWNU517CuWNJWagPcaLkuhFlhc8t2VcdgyxswY1e7J9BJbqtbWeobVnDRRuEHLwxWgh6gNtfvsmBl28KFiKWQ6nUw3bI0YEm7j1byCSaVjet7yDUVe3pQGppFY%2FBgt4kpyAK02puW%2FgHPorcR9e2ynvDuU5tPUA8isxnLhq1HDObGkngXFfeMqaQoASCHqHi%2BhwM4DhUSnR8V74ypbBBQ8A9RQRCiMDwSFTSngvEZYPEPYDEvkPu5%2Bzgho2M4Try5430KJ473LVPDe%2B0D%2FA4W%2FI4vwu9wnvAh8afzO1zw%2B%2Fcl%2BE3Rm3y75NPJEx4tOL66CMffJBzTD0u4WY4%2FcF9rk38J9Pov%3C%2Fdiagram%3E%3C%2Fmxfile%3E">
  <defs
     id="defs8">
    <clipPath
       id="clip-0">
      <path
         clip-rule="nonzero"
         d="M 43 39 L 179 39 L 179 181.703125 L 43 181.703125 Z M 43 39 "
         id="path2" />
    </clipPath>
    <clipPath
       id="clip-1">
      <path
         clip-rule="nonzero"
         d="M 41 37 L 178 37 L 178 181.703125 L 41 181.703125 Z M 41 37 "
         id="path5" />
    </clipPath>
  </defs>
  <path
     fill="none"
     stroke-width="0.5"
     stroke-linecap="round"
     stroke-linejoin="round"
     stroke="rgb(98.039246%, 84.309387%, 67.449951%)"
     stroke-opacity="1"
     stroke-miterlimit="10"
     d="M 30.149335 31.507581 L 30.149335 31.507581 M 30.149335 31.507581 L 30.149335 31.507581 M 19.38785 49.979721 C 29.548573 37.687598 38.852555 25.672349 45.638559 19.800548 M 19.38785 49.979721 C 25.202187 42.85938 32.019535 35.921879 45.638559 19.800548 M 13.228729 63.170376 C 29.109755 42.681763 47.28935 24.951434 59.81133 9.587586 M 13.228729 63.170376 C 23.802149 50.852133 34.74125 36.501745 59.81133 9.587586 M 11.651074 71.079545 C 27.458964 53.808929 43.528055 36.392041 66.1115 8.438301 M 11.651074 71.079545 C 22.981977 58.599357 34.307656 43.601191 66.1115 8.438301 M 10.742095 78.23123 C 25.761157 65.051024 38.0794 46.949789 72.41167 7.289016 M 10.742095 78.23123 C 23.587964 64.351005 35.629334 48.699836 72.41167 7.289016 M 9.817443 85.38814 C 25.238755 68.039164 40.837683 50.951389 78.71184 6.139732 M 9.817443 85.38814 C 33.889735 58.44786 56.332132 31.089659 78.71184 6.139732 M 8.250236 93.292085 C 26.398488 70.019068 45.581095 48.099074 85.001563 4.990447 M 8.250236 93.292085 C 34.187504 62.971863 60.678518 34.511393 85.001563 4.990447 M 7.330808 100.448995 C 40.952612 60.830014 75.358019 22.010309 91.301733 3.841162 M 7.330808 100.448995 C 39.787655 61.462121 73.39901 23.838717 91.301733 3.841162 M 7.72261 106.090938 C 36.057704 78.199886 60.537469 47.038597 97.601903 2.691877 M 7.72261 106.090938 C 34.511393 73.681108 62.130796 41.809351 97.601903 2.691877 M 8.767414 110.980622 C 30.781442 83.711229 53.897738 55.600769 102.590844 3.052335 M 8.767414 110.980622 C 40.121992 76.371479 68.467534 41.851144 102.590844 3.052335 M 9.817443 115.870307 C 31.241156 90.638282 54.399244 61.639738 106.921557 4.170275 M 9.817443 115.870307 C 33.320316 87.159084 59.33072 58.541893 106.921557 4.170275 M 10.867471 120.749543 C 28.597801 96.248881 49.441647 73.32065 111.910498 4.530733 M 10.867471 120.749543 C 33.059115 92.440569 57.732169 65.57865 111.910498 4.530733 M 11.927948 125.639227 C 37.421173 97.878776 59.727746 67.537658 116.888991 4.89119 M 11.927948 125.639227 C 43.39223 90.528577 76.308791 53.568624 116.888991 4.89119 M 12.977976 130.528911 C 48.590132 90.011399 81.417884 50.089426 120.571926 6.76139 M 12.977976 130.528911 C 56.191083 83.732125 96.530978 34.150936 120.571926 6.76139 M 14.028004 135.418596 C 48.261018 96.87054 81.982078 55.449272 124.239189 8.63159 M 14.028004 135.418596 C 57.011255 84.34856 100.240034 36.000239 124.239189 8.63159 M 16.389262 138.798538 C 45.26243 109.841786 73.24229 77.881221 127.922125 10.50179 M 16.389262 138.798538 C 44.269866 108.201443 69.841452 78.899905 127.922125 10.50179 M 18.75052 142.17848 C 55.141055 97.267565 93.067452 55.010454 131.589388 12.371989 M 18.75052 142.17848 C 45.330342 111.090327 72.970641 79.19245 131.589388 12.371989 M 21.122226 145.558422 C 53.161151 108.441748 84.599313 69.548906 135.272323 14.242189 M 21.122226 145.558422 C 60.29194 100.328842 98.181769 56.358252 135.272323 14.242189 M 23.478259 148.938364 C 54.190283 112.720222 86.929227 76.742384 138.939586 16.112389 M 23.478259 148.938364 C 52.748453 115.300888 81.611173 83.36122 138.939586 16.112389 M 26.497744 151.560823 C 58.829214 112.652309 96.901884 73.487819 142.622522 17.982589 M 26.497744 151.560823 C 57.962026 112.751566 91.380093 77.029706 142.622522 17.982589 M 28.859002 154.940765 C 64.732359 113.812042 105.819289 71.361642 146.289785 19.847564 M 28.859002 154.940765 C 67.642139 109.481328 107.861881 63.389785 146.289785 19.847564 M 31.22026 158.320707 C 55.402256 129.337834 81.600724 97.680263 149.967496 21.71254 M 31.22026 158.320707 C 71.539259 111.429888 111.722433 66.712263 149.967496 21.71254 M 33.581517 161.700649 C 78.690944 109.491776 121.219705 60.2397 152.328754 25.092482 M 33.581517 161.700649 C 73.649763 115.170288 115.091927 69.407858 152.328754 25.092482 M 36.601002 164.317883 C 76.789401 116.272556 117.928571 71.7221 155.348238 27.720165 M 36.601002 164.317883 C 62.418117 135.3977 88.35016 105.020014 155.348238 27.720165 M 38.967484 167.697826 C 78.131974 120.62939 120.692079 74.501279 158.367723 30.3374 M 38.967484 167.697826 C 62.099452 141.598613 86.161295 112.652309 158.367723 30.3374 M 41.992192 170.320284 C 69.909364 136.661913 97.497422 104.121482 160.728981 33.722566 M 41.992192 170.320284 C 79.610372 126.119837 117.322585 81.872374 160.728981 33.722566 M 45.659455 172.190484 C 73.978877 136.432056 102.951301 101.368422 163.748465 36.350249 M 45.659455 172.190484 C 86.610561 123.152593 128.700504 74.76248 163.748465 36.350249 M 49.342391 174.060684 C 75.551307 142.638194 100.511683 116.100164 166.76795 38.967484 M 49.342391 174.060684 C 81.767893 137.842542 115.018791 99.482551 166.76795 38.967484 M 52.351427 176.688367 C 93.438358 128.789312 138.28136 79.500668 169.129207 42.347426 M 52.351427 176.688367 C 99.618375 124.082469 145.521854 71.810908 169.129207 42.347426 M 56.029138 178.558567 C 84.468712 141.687422 118.639038 108.697725 172.148692 44.969885 M 56.029138 178.558567 C 79.662612 151.132453 105.04091 124.040676 172.148692 44.969885 M 59.701626 180.428766 C 83.340324 149.977944 108.368611 120.368189 175.168176 47.597567 M 59.701626 180.428766 C 101.452007 132.639416 141.551597 85.398588 175.168176 47.597567 M 62.72111 183.051225 C 101.749776 136.870874 141.938175 91.202476 176.218205 52.492476 M 62.72111 183.051225 C 92.989092 149.612263 121.339857 115.400145 176.218205 52.492476 M 66.398821 184.921425 C 113.399344 133.647652 155.839296 81.172355 177.931684 56.619453 M 66.398821 184.921425 C 95.862304 151.03842 125.242201 117.839763 177.931684 56.619453 M 70.071309 186.791625 C 101.331854 155.797504 127.70794 121.230153 178.981712 61.509137 M 70.071309 186.791625 C 101.849032 150.317505 132.289407 113.838162 178.981712 61.509137 M 74.402023 187.899117 C 114.600869 138.939586 153.728792 94.060016 180.679519 65.641338 M 74.402023 187.899117 C 114.579973 141.337412 154.178057 95.611551 180.679519 65.641338 M 79.390963 188.259575 C 100.140777 162.750677 123.33021 139.717965 182.387774 69.768315 M 79.390963 188.259575 C 115.708362 145.537526 151.550375 105.228974 182.387774 69.768315 M 84.379904 188.620032 C 109.06863 158.978933 138.78809 125.900428 183.437803 74.658 M 84.379904 188.620032 C 117.829315 151.9474 150.892148 113.82249 183.437803 74.658 M 89.358397 188.98049 C 110.51046 164.229075 131.411771 140.480673 185.151282 78.800649 M 89.358397 188.98049 C 110.949278 164.991782 131.777453 141.311292 185.151282 78.800649 M 94.352561 189.340947 C 117.181536 162.479028 144.58153 131.019969 186.20131 83.690333 M 94.352561 189.340947 C 114.407581 165.388808 135.120826 143.061339 186.20131 83.690333 M 99.341502 189.701405 C 126.490743 158.268466 153.31087 128.538559 189.220795 86.307568 M 99.341502 189.701405 C 126.339246 159.469991 150.96006 128.658712 189.220795 86.307568 M 104.978221 189.309603 C 125.27877 168.079179 143.787478 146.650242 188.301367 93.459254 M 104.978221 189.309603 C 129.431867 162.108122 154.449707 132.770017 188.301367 93.459254 M 111.278392 188.160318 C 136.369368 160.441659 162.881278 130.340847 188.040166 99.85868 M 111.278392 188.160318 C 131.808797 166.120171 151.498134 143.531501 188.040166 99.85868 M 118.242012 186.258774 C 137.591789 165.200743 152.391442 143.050891 187.778965 106.258107 M 118.242012 186.258774 C 136.849978 164.840286 157.192318 142.329976 187.778965 106.258107 M 125.189961 184.352007 C 146.890547 159.402079 165.488064 137.361932 186.859537 113.409792 M 125.189961 184.352007 C 138.699281 168.580685 152.187705 153.138477 186.859537 113.409792 M 132.148358 182.450463 C 150.610051 163.999218 166.877654 141.457565 184.62888 122.07122 M 132.148358 182.450463 C 143.959871 167.91201 156.262442 153.979545 184.62888 122.07122 M 139.101531 180.538471 C 146.618898 171.291952 155.139277 159.271479 178.469758 135.261875 M 139.101531 180.538471 C 147.308469 171.65241 156.001241 162.479028 178.469758 135.261875 M 159.830449 162.792469 C 164.500724 159.631936 168.648597 152.260841 172.300189 148.45253 M 159.830449 162.792469 C 162.719333 158.691612 168.110523 153.44147 172.300189 148.45253 "
     transform="matrix(0.747748, 0, 0, 0.747748, 0.373874, 0.373874)"
     id="path10" />
  <path
     fill="none"
     stroke-width="1"
     stroke-linecap="round"
     stroke-linejoin="round"
     stroke="rgb(70.588684%, 39.608765%, 1.568604%)"
     stroke-opacity="1"
     stroke-miterlimit="10"
     d="M 116.638238 4.922534 C 127.880332 6.139732 138.730625 13.808595 148.379393 20.918489 C 158.028161 28.028382 168.188884 37.050268 174.551742 47.581895 C 180.898928 58.108299 185.031129 71.842252 186.509528 84.097807 C 187.977478 96.369034 186.608784 109.261919 183.422131 121.167465 C 180.219805 133.078234 174.750255 145.777831 167.342592 155.551975 C 159.929705 165.320896 149.51823 174.238301 138.950034 179.791436 C 128.37139 185.328899 115.729258 187.899117 103.870729 188.828993 C 92.0122 189.748421 79.051402 189.189451 67.762291 185.328899 C 56.478404 181.468347 45.241534 173.799483 36.177856 165.670905 C 27.119403 157.547551 18.358718 147.470414 13.41157 136.56788 C 8.448749 125.670571 6.651686 112.620965 6.447949 100.292274 C 6.249436 87.958359 8.28158 74.062461 12.220493 62.611406 C 16.169853 51.149902 22.172254 40.451106 30.117991 31.549373 C 38.068952 22.642416 48.762524 14.017556 59.941931 9.159216 C 71.110889 4.311324 86.991915 3.052335 97.168309 2.40978 C 107.349927 1.777673 116.382261 4.368788 121.010744 5.361352 C 125.639227 6.348692 125.231753 6.677806 124.939208 8.370389 M 58.170987 10.58015 C 67.741395 4.588197 80.002174 3.418016 91.620398 2.780686 C 103.24907 2.127683 116.747942 2.399332 127.911677 6.740494 C 139.070187 11.081656 149.789879 20.21847 158.581908 28.827658 C 167.358264 37.452517 175.737595 46.892325 180.622055 58.437412 C 185.501291 69.987724 188.202111 85.759046 187.852101 98.139977 C 187.502092 110.520908 183.479595 121.449562 178.51155 132.717776 C 173.538282 143.991215 166.47018 157.422175 158.038609 165.78061 C 149.612263 174.139044 139.138099 178.678719 127.932573 182.889281 C 116.721822 187.099842 102.679652 191.299955 90.800227 191.038754 C 78.910353 190.777553 67.349593 187.209546 56.619453 181.337746 C 45.89976 175.47117 34.13004 165.148503 26.429832 155.828848 C 18.729624 146.509194 13.860836 136.740273 10.428653 125.419818 C 7.001695 114.099363 5.000895 100.590043 5.857634 87.921791 C 6.719598 75.248314 9.639826 60.250148 15.610883 49.410303 C 21.58194 38.570458 34.939763 29.391852 41.699647 22.887945 C 48.459531 16.39971 53.490264 12.189149 56.149291 10.449549 C 58.808318 8.70995 56.781398 11.170464 57.648585 12.45035 "
     transform="matrix(0.747748, 0, 0, 0.747748, 0.373874, 0.373874)"
     id="path12" />
  <path
     fill="none"
     stroke-width="0.5"
     stroke-linecap="round"
     stroke-linejoin="round"
     stroke="rgb(81.568909%, 80.778503%, 88.62915%)"
     stroke-opacity="1"
     stroke-miterlimit="10"
     d="M 164.249971 38.100296 L 164.249971 38.100296 M 164.249971 38.100296 L 164.249971 38.100296 M 158.080402 51.290951 C 167.979923 40.498122 179.269033 29.841118 190.882034 13.557842 M 158.080402 51.290951 C 165.848522 44.510171 171.981523 35.660678 190.882034 13.557842 M 152.569059 63.729346 C 170.027739 41.501134 189.53946 19.649052 199.15166 10.141332 M 152.569059 63.729346 C 168.319484 45.831848 183.129586 27.970918 199.15166 10.141332 M 149.680175 73.137809 C 161.810353 60.762102 172.007643 44.369122 208.069065 5.972563 M 149.680175 73.137809 C 167.420952 53.93953 182.497479 36.491297 208.069065 5.972563 M 149.418974 79.54246 C 168.068731 60.77255 185.778164 38.387617 212.399779 7.090503 M 149.418974 79.54246 C 162.818589 63.55173 175.810731 48.611028 212.399779 7.090503 M 149.157773 85.941886 C 177.059272 57.167975 202.557722 24.308879 218.05217 6.688254 M 149.157773 85.941886 C 164.882078 69.517562 179.101865 51.64096 218.05217 6.688254 M 148.901796 92.341313 C 169.80833 67.490642 195.698582 38.058504 224.35234 5.538969 M 148.901796 92.341313 C 171.072544 65.009232 195.688134 36.998028 224.35234 5.538969 M 148.640594 98.730292 C 169.24936 77.280459 185.469947 53.098462 229.98906 5.152391 M 148.640594 98.730292 C 175.110712 67.250337 203.278637 36.109944 229.98906 5.152391 M 148.379393 105.129718 C 180.851912 70.039965 216.850645 29.00005 236.28923 3.997883 M 148.379393 105.129718 C 179.039177 70.828792 206.721267 37.509982 236.28923 3.997883 M 148.118192 111.529145 C 182.591511 73.989325 213.580408 34.119592 242.5894 2.848598 M 148.118192 111.529145 C 179.01828 76.590888 208.419074 41.219037 242.5894 2.848598 M 149.821223 115.661346 C 186.478183 74.830392 222.83215 32.787466 248.231343 2.46202 M 149.821223 115.661346 C 170.69119 91.202476 190.688745 66.910776 248.231343 2.46202 M 151.529478 119.798771 C 175.507738 90.857691 205.410038 59.132207 252.562057 3.569513 M 151.529478 119.798771 C 173.407681 93.992104 193.802262 70.682519 252.562057 3.569513 M 152.579507 124.688455 C 177.529434 96.259329 197.318028 70.290718 256.887547 4.687454 M 152.579507 124.688455 C 182.372102 91.12934 212.248282 56.551541 256.887547 4.687454 M 154.287762 128.820656 C 184.540071 97.419062 216.05137 60.009843 260.570483 6.557653 M 154.287762 128.820656 C 179.969052 99.607927 203.362221 71.701203 260.570483 6.557653 M 155.990793 132.947633 C 178.271245 102.669204 205.8802 77.578228 264.901197 7.67037 M 155.990793 132.947633 C 192.470136 91.651742 227.15764 50.19913 264.901197 7.67037 M 157.699048 137.090283 C 186.519976 104.147602 211.752 69.998172 268.56846 9.54057 M 157.699048 137.090283 C 196.487409 93.18238 233.128697 49.358063 268.56846 9.54057 M 158.749076 141.969519 C 198.441193 98.139977 236.90044 54.190283 272.899174 10.65851 M 158.749076 141.969519 C 189.199899 106.848421 221.082103 70.551919 272.899174 10.65851 M 160.462556 146.112168 C 187.120738 116.037475 212.007977 85.220971 277.240336 11.771227 M 160.462556 146.112168 C 196.482185 104.121482 231.070432 63.57785 277.240336 11.771227 M 162.818589 149.49211 C 193.859726 112.788134 225.600882 77.478971 281.57105 12.878719 M 162.818589 149.49211 C 202.949524 102.219938 243.717789 55.428376 281.57105 12.878719 M 165.179847 152.872052 C 206.830972 101.629624 250.509017 56.102275 283.932308 16.258662 M 165.179847 152.872052 C 210.717644 98.082513 258.09952 44.541515 283.932308 16.258662 M 168.199332 155.489287 C 215.508072 102.439347 260.361522 49.269254 286.951792 18.891568 M 168.199332 155.489287 C 204.631659 114.010555 241.14757 71.147457 286.951792 18.891568 M 170.560589 158.869229 C 196.74861 127.901228 222.581397 98.688499 289.971277 21.508803 M 170.560589 158.869229 C 206.167521 115.180736 244.689457 73.26841 289.971277 21.508803 M 173.580074 161.491688 C 206.031696 129.828892 232.590623 93.260741 292.990761 24.14171 M 173.580074 161.491688 C 198.357609 134.760369 222.461245 107.54844 292.990761 24.14171 M 175.95178 164.87163 C 212.117682 125.769828 246.418608 86.062039 295.999798 26.758945 M 175.95178 164.87163 C 206.78918 128.742296 239.089306 92.189816 295.999798 26.758945 M 178.960816 167.499313 C 210.701972 133.052114 239.75798 101.990081 299.019282 29.391852 M 178.960816 167.499313 C 207.092173 135.721589 234.079469 103.928193 299.019282 29.391852 M 181.980301 170.121772 C 212.028873 136.41116 240.651288 103.17071 302.038767 32.009087 M 181.980301 170.121772 C 213.058006 134.399911 244.120038 97.35115 302.038767 32.009087 M 184.352007 173.501714 C 227.570338 128.407959 267.299023 78.847665 305.058251 34.631546 M 184.352007 173.501714 C 216.140178 136.129063 247.520877 100.882588 305.058251 34.631546 M 187.371491 176.118948 C 224.430701 131.422219 265.392255 87.462077 308.077736 37.259229 M 187.371491 176.118948 C 217.258119 142.768794 247.008922 108.661157 308.077736 37.259229 M 191.038754 177.989148 C 233.818268 131.599836 272.909622 84.150047 309.791215 41.39143 M 191.038754 177.989148 C 228.390509 136.270111 267.04827 93.971208 309.791215 41.39143 M 194.72169 179.859348 C 233.739907 137.858214 267.528879 96.901884 311.489022 45.528855 M 194.72169 179.859348 C 239.632604 131.881933 283.101688 81.741773 311.489022 45.528855 M 198.388953 181.729548 C 228.761415 147.898783 256.380817 116.648686 313.202501 49.661056 M 198.388953 181.729548 C 231.352529 144.168832 264.781044 105.662568 313.202501 49.661056 M 202.06144 183.599747 C 240.891593 139.670949 281.889715 92.848043 315.558535 53.040998 M 202.06144 183.599747 C 234.857848 145.547974 268.260243 106.090938 315.558535 53.040998 M 206.397378 184.717688 C 238.420631 148.290585 273.510384 110.970174 317.272014 57.167975 M 206.397378 184.717688 C 233.337658 152.292186 262.487699 118.889791 317.272014 57.167975 M 210.069865 186.587888 C 246.507416 143.630758 285.379362 100.74154 318.980269 61.300176 M 210.069865 186.587888 C 240.337847 149.309269 273.750689 111.680641 318.980269 61.300176 M 213.747576 188.458088 C 241.842365 154.569859 272.658869 120.780887 320.678076 65.437601 M 213.747576 188.458088 C 246.648465 150.061528 279.878467 112.829926 320.678076 65.437601 M 218.07829 189.570804 C 260.02196 144.800939 296.501304 99.482551 322.391555 69.569803 M 218.07829 189.570804 C 257.080836 146.091272 295.487843 101.880377 322.391555 69.569803 M 223.062007 189.931262 C 249.77243 159.088638 278.509773 125.169065 324.747589 72.949745 M 223.062007 189.931262 C 259.577919 147.637582 296.438615 105.568536 324.747589 72.949745 M 228.050948 190.291719 C 257.979368 156.549763 287.552555 122.687655 327.119295 76.329687 M 228.050948 190.291719 C 258.392066 155.269878 289.151105 121.94062 327.119295 76.329687 M 233.687667 189.899918 C 262.921292 157.469191 291.721324 125.27877 327.511096 81.97163 M 233.687667 189.899918 C 267.069166 151.79068 301.020082 113.869506 327.511096 81.97163 M 238.681832 190.260375 C 262.419786 164.208179 282.741231 136.719377 327.897674 87.618797 M 238.681832 190.260375 C 259.739863 165.670905 279.852347 140.297832 327.897674 87.618797 M 243.670773 190.620833 C 265.601216 166.548541 283.441249 142.397889 328.299924 93.260741 M 243.670773 190.620833 C 276.811966 152.642195 310.51213 114.052347 328.299924 93.260741 M 248.649265 190.98129 C 267.037821 169.338168 286.930896 145.950223 328.038722 99.660167 M 248.649265 190.98129 C 272.251395 163.351439 297.070722 135.899206 328.038722 99.660167 M 254.301657 190.57904 C 279.397857 159.088638 304.018671 131.140122 328.430524 105.302111 M 254.301657 190.57904 C 274.508172 167.959027 292.72956 145.631558 328.430524 105.302111 M 263.219062 186.410271 C 286.35103 160.060306 309.430757 132.942409 326.858094 113.21128 M 263.219062 186.410271 C 285.337569 161.977522 306.23888 135.998462 326.858094 113.21128 M 272.141691 182.25195 C 289.981725 161.141678 306.520977 144.038231 323.321431 123.38245 M 272.141691 182.25195 C 287.667483 164.192507 303.527613 146.237545 323.321431 123.38245 M 281.069544 178.077957 C 291.559379 167.37916 302.921626 152.140689 319.779544 133.548396 M 281.069544 178.077957 C 289.088417 167.739618 298.319263 157.897561 319.779544 133.548396 "
     transform="matrix(0.747748, 0, 0, 0.747748, 0.373874, 0.373874)"
     id="path14" />
  <path
     fill="none"
     stroke-width="1"
     stroke-linecap="round"
     stroke-linejoin="round"
     stroke="rgb(33.729553%, 31.759644%, 49.409485%)"
     stroke-opacity="1"
     stroke-miterlimit="10"
     d="M 209.772096 5.220304 C 220.361188 0.252259 234.722023 -0.907474 246.40816 0.220915 C 258.09952 1.349304 269.670728 5.80017 279.888915 11.980188 C 290.101877 18.149757 300.262599 27.020146 307.701606 37.269677 C 315.151061 47.519207 321.540039 61.028527 324.549076 73.461699 C 327.547664 85.900094 327.599905 99.712408 325.740153 111.910498 C 323.869953 124.108589 319.810888 136.270111 313.348774 146.650242 C 306.891883 157.030373 297.008034 166.929894 286.967464 174.180836 C 276.932118 181.442227 264.728804 187.721501 253.100132 190.192463 C 241.461011 192.658201 228.609918 191.738773 217.179759 189.022282 C 205.749599 186.300567 194.042567 180.768328 184.498279 173.862171 C 174.959216 166.95079 166.208979 158.211002 159.929705 147.548774 C 153.639983 136.89177 148.630146 122.530934 146.791291 109.920146 C 144.957659 97.309358 146.04948 83.820934 148.938364 71.87882 C 151.822024 59.941931 157.140078 47.968473 164.098475 38.262241 C 171.072544 28.550784 181.442227 19.649052 190.720089 13.610083 C 200.008399 7.571113 213.360999 3.872506 219.802218 2.00753 C 226.238212 0.142555 229.210681 1.041086 229.351729 2.420228 M 220.27238 3.041887 C 231.02864 -0.411192 243.080458 1.140343 254.782267 3.950866 C 266.489299 6.750942 280.871031 12.779463 290.509351 19.86846 C 300.142447 26.957458 306.662026 36.099496 312.59129 46.490075 C 318.520555 56.880654 324.559524 69.548906 326.090162 82.201487 C 327.620801 94.859291 325.097598 110.191795 321.769896 122.400334 C 318.431747 134.61932 313.327877 145.652454 306.092607 155.499735 C 298.852113 165.341792 288.529447 175.748043 278.31126 181.489243 C 268.08785 187.240891 256.610674 189.011834 244.762593 189.96783 C 232.919736 190.92905 218.569348 190.949946 207.248894 187.272235 C 195.928439 183.589299 185.861749 176.1085 176.839863 167.880666 C 167.817978 159.658056 158.101298 149.121204 153.128029 137.910454 C 148.170433 126.710152 147.329365 113.409792 147.052492 100.647507 C 146.780843 87.900895 147.538326 73.080345 151.487686 61.378537 C 155.442271 49.6924 162.531268 39.542126 170.748654 30.468 C 178.971264 21.388651 192.757457 11.802571 200.828571 6.949455 C 208.910132 2.101563 215.978234 1.751553 219.222351 1.359752 C 222.471693 0.957502 220.042523 3.088903 220.2985 4.577749 "
     transform="matrix(0.747748, 0, 0, 0.747748, 0.373874, 0.373874)"
     id="path16" />
  <g
     clip-path="url(#clip-0)"
     id="g20">
    <path
       fill="none"
       stroke-width="0.5"
       stroke-linecap="round"
       stroke-linejoin="round"
       stroke="#b0e3e6"
       stroke-opacity="1"
       stroke-miterlimit="10"
       d="m 70.792224,92.017424 v 0 m 0,0 v 0 M 67.250337,102.18859 C 76.068486,90.64873 89.389741,75.478171 97.42951,67.469746 M 67.250337,102.18859 C 72.991537,95.700359 79.521564,87.368044 97.42951,67.469746 M 63.70845,112.35976 C 76.428943,97.178757 88.512105,84.280648 105.69914,64.05846 m -41.99069,48.3013 C 79.819333,94.159273 93.861503,77.510316 105.69914,64.05846 M 60.171788,122.53093 C 81.49102,98.040721 98.411626,77.050602 114.62176,59.88969 M 60.171788,122.53093 C 77.781965,102.711 94.101808,82.948522 114.62176,59.88969 M 58.599357,130.4401 C 70.149669,115.31134 86.4016,99.879576 122.89139,56.478404 M 58.599357,130.4401 C 72.129573,113.58741 85.73815,98.850444 122.89139,56.478404 M 58.327708,136.83953 C 77.980477,115.37925 97.85788,93.0779 131.8088,52.309635 M 58.327708,136.83953 C 76.987913,113.95832 97.220549,92.482362 131.8088,52.309635 M 58.729958,142.48147 C 83.141811,114.42848 107.40217,84.071687 136.79774,52.670092 M 58.729958,142.48147 C 89.807663,106.26856 121.28762,71.351194 136.79774,52.670092 M 58.468757,148.8809 C 88.391953,113.7807 115.22775,80.540248 142.43968,52.267843 M 58.468757,148.8809 C 83.261963,118.82188 110.0194,90.408425 142.43968,52.267843 M 58.860558,154.51762 C 87.127739,122.49959 114.56953,90.047968 147.42862,52.6283 M 58.860558,154.51762 C 89.990503,119.42786 120.22192,84.782154 147.42862,52.6283 M 58.599357,160.92227 C 79.119314,140.09932 96.928004,120.34207 152.41756,52.988758 M 58.599357,160.92227 C 79.662612,137.96792 99.900472,112.32842 152.41756,52.988758 M 57.679929,168.06873 C 79.56858,142.90984 104.96777,114.84117 157.40128,53.349215 M 57.679929,168.06873 C 85.288884,135.13127 114.32922,102.43935 157.40128,53.349215 M 59.388184,172.20093 C 87.059827,139.38885 118.04872,102.61174 162.39022,53.709673 M 59.388184,172.20093 C 100.9505,124.48994 141.19114,77.818533 162.39022,53.709673 M 61.101663,176.33836 C 94.911532,138.77764 130.58115,98.181769 167.37916,54.07013 M 61.101663,176.33836 C 102.13113,129.53112 141.76056,82.170143 167.37916,54.07013 M 62.799471,180.47056 C 100.94005,135.02157 143.56807,91.312181 171.70987,55.188071 M 62.799471,180.47056 C 101.19081,136.40071 141.54115,93.511494 171.70987,55.188071 M 64.507726,184.59754 C 107.76785,138.20822 147.31892,86.840418 176.04059,56.300788 M 64.507726,184.59754 C 108.65071,133.17227 151.2526,84.160495 176.04059,56.300788 M 66.221205,188.74018 C 95.230197,156.99903 126.02058,122.68766 180.3713,57.418728 M 66.221205,188.74018 C 111.83214,136.46862 156.38259,84.808274 180.3713,57.418728 M 67.919012,192.87239 C 95.590654,160.25882 121.28239,132.14836 184.70202,58.531445 M 67.919012,192.87239 C 112.90829,140.60082 158.19011,87.989703 184.70202,58.531445 M 69.632491,196.99936 C 103.49982,155.949 141.0083,117.48975 188.37973,60.401645 M 69.632491,196.99936 C 115.06058,144.99945 161.00063,90.382305 188.37973,60.401645 M 71.340746,201.14201 C 99.059405,165.15895 130.1789,132.3312 191.39921,63.029327 M 71.340746,201.14201 C 107.36038,159.74164 141.19114,120.20102 191.39921,63.029327 M 74.36023,203.75925 c 33.05239,-41.72949 69.65188,-78.7678 120.04802,-138.107464 M 74.36023,203.75925 c 43.17131,-48.01921 84.7493,-97.92951 120.04802,-138.107464 M 77.369267,206.39215 C 104.11103,176.61001 129.16022,147.30847 197.42773,68.279469 M 77.369267,206.39215 C 110.4112,168.08963 146.23754,126.67881 197.42773,68.279469 M 79.740973,209.7721 C 115.21208,164.87163 153.12803,124.76159 200.45244,70.901928 M 79.740973,209.7721 C 115.6509,167.1493 153.61909,124.31233 200.45244,70.901928 M 82.760457,212.38933 C 118.32037,170.57104 151.09066,130.29905 203.47193,73.519163 M 82.760457,212.38933 C 110.25971,179.39963 137.83209,148.50999 203.47193,73.519163 M 85.769494,215.01179 C 126.5691,168.57024 169.45832,117.46886 206.49141,76.15207 M 85.769494,215.01179 C 132.24239,161.14168 177.83765,107.54844 206.49141,76.15207 M 88.788978,217.63947 C 111.45078,189.0693 137.77985,161.52826 209.51089,78.769305 M 88.788978,217.63947 C 118.13231,183.70945 146.69203,149.39808 209.51089,78.769305 M 91.160684,221.01941 C 121.82047,185.08859 155.13928,149.27792 212.53038,81.402212 M 91.160684,221.01941 C 132.2006,175.48162 172.15914,127.95869 212.53038,81.402212 M 94.180169,223.64187 C 127.25867,186.74983 162.14991,146.00246 215.54986,84.019447 M 94.180169,223.64187 C 132.21105,180.52802 170.03819,137.2679 215.54986,84.019447 M 97.189205,226.26956 C 142.71133,176.55777 189.3305,124.28098 217.91112,87.399389 M 97.189205,226.26956 C 126.7415,191.441 155.29077,158.97893 217.91112,87.399389 M 100.20869,228.89201 c 26.19324,-33.7524 56.33062,-66.39209 119.41069,-137.36042 M 100.20869,228.89201 C 132.01776,191.64996 165.85897,153.58252 219.61938,91.53159 M 103.89163,230.76221 C 141.6404,186.36848 181.37954,141.2904 221.32241,95.669015 M 103.89163,230.76221 C 144.59198,183.57885 186.59834,135.14172 221.32241,95.669015 M 108.22234,231.86971 c 40.87797,-48.22817 81.58877,-95.8817 115.46655,-132.820753 M 108.22234,231.86971 C 139.07019,196.77995 168.46053,162.31186 223.68889,99.048957 M 111.8896,233.73991 C 139.95827,203.13236 164.02011,172.7808 225.39192,103.18116 M 111.8896,233.73991 c 36.36964,-40.48095 71.30267,-82.58134 113.50232,-130.55875 M 116.22032,234.85785 C 154.70046,190.9395 191.3313,146.30023 227.10018,107.30813 M 116.22032,234.85785 C 142.9882,202.1607 169.11876,171.56883 227.10018,107.30813 M 119.89803,236.72805 c 33.58001,-37.70699 62.00391,-72.46763 109.5634,-126.03997 m -109.5634,126.03997 c 32.96357,-37.9055 65.04951,-76.33863 109.5634,-126.03997 M 123.57052,238.59825 C 146.8801,212.23261 171.55838,181.94896 231.16969,114.83073 M 123.57052,238.59825 c 30.80083,-36.52636 60.91209,-70.58698 107.59917,-123.76752 M 127.91168,239.71096 C 163.94175,194.9202 202.98087,150.07198 233.53095,118.20022 M 127.91168,239.71096 C 155.52063,207.7504 184.92142,174.45249 233.53095,118.20022 M 131.57894,241.58116 c 26.36041,-30.20007 56.45078,-62.3487 102.34903,-117.73377 M 131.57894,241.58116 c 27.60895,-33.12029 57.95007,-66.18313 102.34903,-117.73377 m -98.6661,119.60397 C 157.49009,217.84843 183.26019,192.57984 234.978,128.7423 M 135.26187,243.45136 C 169.98072,204.06224 206.58022,165.07014 234.978,128.7423 m -94.07941,114.31726 c 31.28145,-33.15164 58.71278,-65.61893 94.47121,-108.68055 m -94.47121,108.68055 c 21.19386,-22.57822 42.93101,-47.6274 94.47121,-108.68055 m -88.82926,108.28353 c 30.07991,-33.73151 60.17028,-68.47126 89.23151,-102.64158 m -89.23151,102.64158 c 19.20872,-21.86253 38.16148,-44.6236 89.23151,-102.64158 m -83.58957,102.24977 c 30.82695,-35.63827 60.41581,-66.4391 83.97615,-96.6026 m -83.97615,96.6026 c 29.57841,-33.16209 57.74634,-65.15922 83.97615,-96.6026 m -78.32898,96.20035 c 15.35862,-18.74901 31.3807,-36.12933 78.72078,-90.55841 m -78.72078,90.55841 c 25.57159,-30.57619 51.4096,-59.82027 78.72078,-90.55841 m -73.07884,90.17184 c 29.07691,-32.74939 60.01879,-68.92052 74.13932,-85.28216 m -74.13932,85.28216 c 27.6403,-30.79039 53.57757,-61.82108 74.13932,-85.28216 m -67.18092,83.37017 c 16.02207,-21.11028 35.00094,-41.47874 64.95026,-74.70874 m -64.95026,74.70874 c 19.98188,-23.67005 39.41002,-45.80945 64.95026,-74.70874 m -54.72163,69.04067 c 10.34357,-13.15408 24.4432,-28.25151 52.49097,-60.37924 m -52.49097,60.37924 c 13.93247,-15.95938 26.91939,-30.59187 52.49097,-60.37924 m -42.91011,55.44777 c 10.62043,-9.90997 16.02207,-18.87962 40.67946,-46.79157 m -40.67946,46.79157 c 13.95859,-15.54147 26.0313,-29.95977 40.67946,-46.79157 m -30.44038,41.1235 c 5.16133,-5.81433 13.82276,-13.75485 26.24026,-30.19484 m -26.24026,30.19484 c 5.96061,-6.55092 12.49064,-14.11008 26.24026,-30.19484"
       transform="matrix(0.747748,0,0,0.747748,0.373874,0.373874)"
       id="path18" />
  </g>
  <g
     clip-path="url(#clip-1)"
     id="g24">
    <path
       fill="none"
       stroke-width="1"
       stroke-linecap="round"
       stroke-linejoin="round"
       stroke="#0e8088"
       stroke-opacity="1"
       stroke-miterlimit="10"
       d="m 185.78861,58.082179 c 10.91298,4.017273 21.62223,15.285487 29.23363,24.976048 7.61662,9.69056 13.09662,21.282663 16.45567,33.151643 3.36949,11.87942 4.71206,25.45143 3.7404,38.08834 -0.96645,12.64213 -4.09041,26.5537 -9.53907,37.754 -5.43821,11.18986 -13.86978,21.56999 -23.15809,29.41647 -9.28308,7.8517 -20.95355,14.37128 -32.52998,17.66242 -11.5921,3.29113 -25.15889,3.88667 -36.98085,2.10005 -11.81151,-1.79184 -23.7484,-6.30017 -33.930019,-12.85109 C 88.898683,221.83959 78.889457,212.00798 71.951956,201.97786 65.01968,191.94251 59.868794,180.25115 57.470968,168.16799 55.067918,156.1005 55.38136,142.15236 57.559777,129.51023 59.727746,116.87854 64.157716,102.90951 70.510126,92.351761 76.862537,81.778341 85.670237,73.049001 95.669015,66.1115 105.66257,59.179223 118.78009,53.051446 130.461,50.73198 c 11.68091,-2.319465 24.4014,-1.050028 35.29871,1.478399 10.90254,2.528426 23.6387,10.040569 30.09037,13.707832 6.46211,3.66204 9.39801,7.13079 8.64053,8.259179 M 184.19006,59.550129 c 10.90776,4.189665 22.22821,14.888462 30.10081,24.547678 7.86738,9.66444 13.45708,21.763273 17.11912,33.423293 3.66204,11.66001 6.03897,24.0305 4.83222,36.54725 -1.20152,12.52198 -6.17479,27.45224 -12.06226,38.57418 -5.88748,11.12717 -14.33994,20.64533 -23.26779,28.17837 -8.93308,7.51737 -18.95276,13.56679 -30.30455,16.98852 -11.35703,3.41129 -26.03653,4.96804 -37.80625,3.48965 -11.76972,-1.4784 -22.87077,-5.87703 -32.801631,-12.37049 C 90.068864,222.44035 80.461888,212.51993 73.221394,202.35921 65.9809,192.20893 59.268032,180.33996 56.572437,168.01127 53.871617,155.68258 54.858958,141.19114 57.011255,128.38184 59.158327,115.57776 63.092016,101.51992 69.44965,91.18158 75.817732,80.838017 84.991115,73.017657 95.209301,66.351805 105.43793,59.670282 118.98905,53.620864 130.81101,51.139454 c 11.81674,-2.470962 26.0313,-0.877635 35.33006,0.360458 9.29876,1.238093 17.33852,5.307606 20.49906,7.088997 3.16053,1.781391 -0.74181,2.209761 -1.53064,3.599351"
       transform="matrix(0.747748,0,0,0.747748,0.373874,0.373874)"
       id="path22" />
  </g>
  <path
     fill-rule="nonzero"
     fill="rgb(100%, 100%, 100%)"
     fill-opacity="1"
     d="M 64.539063 57.652344 C 66.085938 56.964844 67.804688 56.386719 69.414063 57.164063 C 71.027344 57.933594 73.339844 60.285156 74.199219 62.308594 C 75.066406 64.335938 75.050781 67.410156 74.617188 69.316406 C 74.183594 71.222656 73.03125 72.589844 71.597656 73.757813 C 70.152344 74.925781 67.820313 76.242188 65.972656 76.316406 C 64.121094 76.382813 61.898438 75.671875 60.492188 74.160156 C 59.085938 72.660156 57.761719 69.390625 57.523438 67.265625 C 57.292969 65.136719 57.882813 63.019531 59.078125 61.40625 C 60.277344 59.789063 63.640625 58.398438 64.703125 57.578125 C 65.757813 56.753906 65.429688 56.410156 65.433594 56.476563 M 62.765625 57.605469 C 64.222656 56.957031 66.839844 57.761719 68.800781 58.183594 C 70.757813 58.601563 73.332031 58.414063 74.535156 60.140625 C 75.738281 61.859375 76.179688 66.46875 76.007813 68.515625 C 75.835938 70.566406 75.15625 71.125 73.503906 72.441406 C 71.851563 73.765625 68 76.121094 66.101563 76.449219 C 64.203125 76.769531 63.355469 75.671875 62.109375 74.410156 C 60.859375 73.136719 59.296875 70.675781 58.609375 68.835938 C 57.914063 66.992188 57.144531 65.203125 57.949219 63.347656 C 58.765625 61.496094 62.757813 58.632813 63.476563 57.71875 C 64.195313 56.804688 62.109375 57.679688 62.25 57.867188 "
     id="path26" />
  <path
     fill="none"
     stroke-width="1"
     stroke-linecap="round"
     stroke-linejoin="round"
     stroke="rgb(0%, 0%, 0%)"
     stroke-opacity="1"
     stroke-miterlimit="10"
     d="M 89.980055 75.060249 C 92.16892 75.467723 95.527966 77.729724 97.210101 80.12755 C 98.892236 82.520152 99.91092 86.657577 100.051969 89.431533 C 100.187794 92.210712 99.790768 94.890636 98.072065 96.792179 C 96.348138 98.678051 92.341313 100.511683 89.729302 100.799004 C 87.127739 101.091549 84.620209 99.78032 82.431344 98.510883 C 80.232031 97.241445 77.562556 95.637671 76.559544 93.171932 C 75.561755 90.711418 75.399811 86.229208 76.449839 83.732125 C 77.499867 81.240267 80.430544 79.500668 82.88061 78.17899 C 85.320228 76.867761 89.488997 75.937885 91.097996 75.838629 C 92.712219 75.739372 92.362209 77.447627 92.529378 77.588676 M 86.041143 77.128962 C 88.052391 76.277446 90.382305 75.311002 92.487586 76.418495 C 94.587642 77.520764 97.251893 81.318627 98.662379 83.758245 C 100.067641 86.208312 101.347526 88.548673 100.929605 91.082324 C 100.522131 93.61075 98.651931 97.220549 96.170521 98.9497 C 93.689111 100.668404 88.950923 101.901273 86.072487 101.441559 C 83.178379 100.992293 80.388751 98.31237 78.847665 96.212313 C 77.311803 94.112256 76.538647 91.630846 76.810297 88.851667 C 77.081946 86.062039 78.910353 81.459676 80.472336 79.500668 C 82.029094 77.54166 85.022459 77.818533 86.150847 77.097618 C 87.289684 76.371479 87.331476 75.227418 87.279236 75.159506 "
     transform="matrix(0.747748, 0, 0, 0.747748, 0.373874, 0.373874)"
     id="path28" />
  <path
     fill-rule="nonzero"
     fill="rgb(0%, 0%, 0%)"
     fill-opacity="1"
     stroke-width="13.373495"
     stroke-linecap="butt"
     stroke-linejoin="miter"
     stroke="rgb(0%, 0%, 0%)"
     stroke-opacity="0.1098"
     stroke-miterlimit="4"
     d="M 207.843712 73.852483 C 207.843712 57.9448 223.515777 48.587339 253.989236 45.780101 C 266.178619 45.780101 271.837976 42.504989 271.837976 35.019021 C 271.837976 34.551148 271.402641 29.872417 270.096635 21.918575 C 267.91996 12.561114 266.178619 6.478765 264.001943 4.1394 C 261.825268 1.332161 257.471917 -0.0714578 250.94189 -0.0714578 C 249.635884 -0.0714578 245.717868 -0.0714578 239.187841 -0.0714578 C 232.222479 -0.0714578 220.903766 0.396415 204.796367 0.864288 C 189.124302 1.800034 167.792881 1.800034 140.802103 1.800034 C 93.78591 1.800034 63.312451 1.332161 49.817062 -0.0714578 L 41.98103 -0.0714578 C 37.192344 4.607273 35.015668 8.350257 35.015668 11.157495 C 36.321673 28.936671 40.675025 40.633497 48.075722 45.780101 L 62.006446 45.780101 C 108.587304 48.119466 142.543444 64.495023 163.874865 95.842517 C 167.792881 100.053374 228.304463 201.581825 344.974277 400.895742 C 461.64409 600.20966 520.849667 701.270238 523.026343 704.077476 C 527.815029 712.031318 535.651061 715.774302 546.969775 715.774302 L 571.783877 715.774302 C 576.137228 710.159826 577.878568 706.884714 577.878568 705.948968 L 606.175351 383.116567 C 624.459427 167.894966 634.472135 58.880546 636.213475 57.009054 C 639.260821 49.523085 661.027577 45.780101 701.078409 45.780101 C 717.621143 45.780101 725.892511 42.504989 725.892511 35.954767 C 725.892511 34.551148 725.02184 29.872417 722.845165 21.918575 C 721.103824 12.093241 719.362484 6.010892 718.056479 4.1394 C 716.750473 1.800034 711.961787 0.864288 704.125755 -0.0714578 C 701.949079 -0.0714578 697.160393 -0.0714578 690.195031 -0.0714578 C 682.794333 -0.0714578 669.73428 0.396415 651.014869 0.864288 C 632.295459 1.800034 607.916692 1.800034 577.878568 1.800034 C 515.19031 1.800034 474.268809 1.332161 455.114063 -0.0714578 L 442.92468 -0.0714578 C 439.006664 4.1394 436.829988 6.946638 436.829988 8.81813 C 436.829988 11.157495 437.700658 16.771972 439.006664 27.065179 C 441.618674 35.486894 443.79535 41.10137 445.101355 42.972862 L 449.019371 45.780101 L 469.044787 45.780101 C 505.177603 48.119466 526.509024 53.733943 533.039051 63.091403 L 520.849667 212.810778 L 283.156689 212.810778 L 249.200549 154.79452 C 221.774436 108.942962 207.843712 81.806325 207.843712 73.852483 Z M 516.060981 260.065956 C 516.060981 267.551924 512.142965 319.485833 503.871597 415.86768 C 496.035565 512.7174 491.246879 561.376197 489.940873 561.84407 L 462.950095 518.79975 C 452.502052 501.020574 431.170631 465.462223 399.826502 412.124696 L 310.147467 260.065956 L 412.886556 259.13021 C 481.669506 259.13021 516.060981 259.13021 516.060981 260.065956 Z M 516.060981 260.065956 "
     transform="matrix(0.00897297, 0, 0, -0.00834895, 62.810805, 69.538466)"
     id="path30" />
  <path
     fill-rule="nonzero"
     fill="rgb(100%, 100%, 100%)"
     fill-opacity="1"
     d="M 108.925781 105.828125 C 110.800781 106.148438 113.382813 107.496094 114.570313 108.910156 C 115.765625 110.324219 116.117188 112.296875 116.09375 114.316406 C 116.074219 116.335938 115.675781 119.332031 114.457031 121.007813 C 113.230469 122.683594 110.539063 124.019531 108.765625 124.371094 C 106.996094 124.722656 105.453125 124.171875 103.800781 123.109375 C 102.148438 122.046875 99.675781 119.984375 98.84375 118.007813 C 98.015625 116.027344 98.050781 113.195313 98.808594 111.25 C 99.554688 109.304688 101.605469 107.175781 103.347656 106.351563 C 105.089844 105.53125 108.207031 106.40625 109.246094 106.320313 C 110.285156 106.234375 109.605469 105.867188 109.574219 105.835938 M 103.308594 106.054688 C 104.929688 105.273438 109.1875 106.058594 111.136719 106.824219 C 113.089844 107.585938 113.988281 109.089844 115.035156 110.628906 C 116.074219 112.175781 117.480469 114.105469 117.417969 116.082031 C 117.351563 118.054688 116.246094 120.957031 114.652344 122.472656 C 113.058594 123.984375 110.03125 125.234375 107.871094 125.15625 C 105.703125 125.089844 102.980469 123.394531 101.65625 122.0625 C 100.332031 120.730469 100.304688 118.863281 99.9375 117.164063 C 99.570313 115.46875 98.777344 113.613281 99.472656 111.878906 C 100.167969 110.144531 103.226563 107.757813 104.125 106.761719 C 105.019531 105.769531 104.902344 105.964844 104.847656 105.910156 "
     id="path32" />
  <path
     fill="none"
     stroke-width="1"
     stroke-linecap="round"
     stroke-linejoin="round"
     stroke="rgb(0%, 0%, 0%)"
     stroke-opacity="1"
     stroke-miterlimit="10"
     d="M 142.627746 139.890358 C 145.119604 139.561245 148.53089 142.298632 150.578707 143.959871 C 152.631747 145.631558 154.308658 147.318917 154.90942 149.889136 C 155.520631 152.469802 155.191518 157.009477 154.198954 159.428199 C 153.201165 161.841697 151.299622 163.299199 148.938364 164.39102 C 146.587554 165.488064 142.518041 166.480628 140.057527 166.020915 C 137.602237 165.550753 135.439492 163.931306 134.180503 161.61184 C 132.911065 159.297599 132.19015 154.998229 132.477471 152.109345 C 132.780465 149.230909 134.018558 146.268889 135.940998 144.299432 C 137.868662 142.329976 142.580729 140.820234 144.027783 140.271712 C 145.469613 139.717965 144.680786 140.84113 144.60765 140.997851 M 138.28136 140.219472 C 140.350072 138.871674 145.030796 139.702293 147.757735 140.862026 C 150.500346 142.021759 153.201165 144.701682 154.70046 147.177868 C 156.189306 149.659279 157.228886 153.289974 156.732604 155.74004 C 156.241546 158.190106 153.989993 160.237923 151.717543 161.878265 C 149.450318 163.50816 145.871863 165.02835 143.108356 165.540305 C 140.350072 166.041811 137.288795 166.658245 135.157395 164.908198 C 133.041666 163.168599 130.758768 158.16921 130.377415 155.081813 C 129.990837 151.978744 131.181914 148.431634 132.837929 146.321129 C 134.509616 144.221072 139.378404 143.458365 140.370968 142.450129 C 141.358308 141.441893 138.772418 140.041855 138.777642 140.261264 "
     transform="matrix(0.747748, 0, 0, 0.747748, 0.373874, 0.373874)"
     id="path34" />
  <path
     fill-rule="nonzero"
     fill="rgb(0%, 0%, 0%)"
     fill-opacity="1"
     stroke-width="12.977581"
     stroke-linecap="butt"
     stroke-linejoin="miter"
     stroke="rgb(0%, 0%, 0%)"
     stroke-opacity="0.1137"
     stroke-miterlimit="4"
     d="M 49.913951 251.905905 C 49.913951 328.791311 72.412071 402.297139 116.967171 472.845836 C 161.522271 543.816981 217.98814 599.580023 285.923638 640.979857 C 353.859137 682.379691 421.794635 703.502056 490.171274 703.924503 C 550.166259 703.924503 597.809336 687.026611 633.100504 652.808381 C 638.835319 646.471672 644.128995 640.55741 648.099251 635.91049 C 652.069507 631.263569 654.716345 627.883991 656.039764 626.194202 L 656.922043 622.814624 C 659.127741 622.814624 667.950533 631.686017 683.831559 649.006355 C 688.684094 652.808381 693.53663 657.877748 698.830305 662.947116 C 704.12398 668.438931 709.858795 673.508298 715.15247 679.000113 C 720.446146 684.491928 723.534123 687.871506 724.857542 689.983742 L 739.856288 705.191845 L 746.032242 705.191845 C 755.296174 705.191845 760.14871 702.657161 760.14871 698.010241 C 760.14871 695.475557 749.12022 649.85125 727.945519 561.13732 C 704.12398 468.198916 692.213211 421.729715 692.213211 420.88482 C 690.448653 417.505242 689.125234 415.815453 686.919536 414.970558 C 685.154977 414.125663 678.979023 413.703216 668.832812 412.858322 L 652.951787 412.858322 C 648.98153 417.082794 647.216972 420.039925 647.216972 422.152162 C 647.216972 422.574609 647.216972 425.109293 648.099251 428.911319 C 648.540391 433.135791 649.42267 439.472501 649.863809 449.188788 C 650.746089 458.482629 651.187228 469.043811 651.187228 480.872335 C 651.187228 528.186431 640.158738 569.586265 618.984037 605.071838 C 597.809336 640.134962 561.194749 658.300196 510.022556 659.14509 C 492.818111 659.14509 473.849108 656.610407 453.997826 651.963486 C 434.146544 647.316566 409.883866 639.290068 382.092071 627.883991 C 353.859137 616.477914 326.508481 597.890234 299.157826 572.120949 C 271.807171 545.929217 247.544493 515.090565 225.928652 479.182546 C 204.753951 441.16229 187.549507 396.805325 175.197598 346.11165 C 162.40455 295.417976 155.787456 254.018141 155.787456 221.912147 C 155.787456 145.871636 181.373553 91.375936 232.104607 58.0026 C 263.866658 35.190446 303.128083 24.206817 349.88888 24.206817 C 410.766145 24.206817 464.585177 46.596523 511.787114 91.798383 C 559.430191 137.42269 590.751103 186.849023 606.190989 240.077381 C 608.837826 248.526327 610.602385 253.595694 611.925804 254.863036 C 613.249222 256.130378 618.542898 256.975272 627.806829 256.975272 C 641.482157 256.975272 648.099251 254.018141 648.099251 248.103879 C 648.099251 244.724301 647.658111 241.76717 647.216972 238.810039 C 627.806829 167.838895 586.339707 106.161591 522.815604 55.045469 C 459.732641 3.5069 391.797142 -21.839938 319.009108 -21.839938 C 243.574236 -21.839938 180.050134 3.084452 127.995661 52.933232 C 75.941188 103.20446 49.913951 169.528684 49.913951 251.905905 Z M 49.913951 251.905905 "
     transform="matrix(0.00885491, 0, 0, -0.00924672, 103.936923, 118.684771)"
     id="path36" />
  <path
     fill-rule="nonzero"
     fill="rgb(100%, 100%, 100%)"
     fill-opacity="1"
     d="M 123.609375 63.296875 C 125.039063 62.460938 126.960938 63.003906 128.566406 63.625 C 130.167969 64.238281 132.066406 65.292969 133.226563 67.003906 C 134.386719 68.71875 135.582031 71.859375 135.535156 73.90625 C 135.492188 75.957031 134.511719 77.914063 132.957031 79.296875 C 131.410156 80.683594 128.15625 82.175781 126.21875 82.222656 C 124.28125 82.257813 122.898438 80.800781 121.351563 79.546875 C 119.804688 78.28125 117.328125 76.585938 116.933594 74.65625 C 116.542969 72.734375 117.867188 70.085938 118.988281 67.992188 C 120.109375 65.890625 122.691406 62.894531 123.664063 62.085938 C 124.628906 61.277344 124.769531 62.78125 124.820313 63.148438 M 123.664063 62.90625 C 125.449219 61.996094 127.230469 63.140625 128.800781 63.863281 C 130.371094 64.597656 132.203125 65.921875 133.089844 67.28125 C 133.980469 68.644531 134.101563 70.152344 134.144531 72.046875 C 134.191406 73.945313 134.527344 76.949219 133.367188 78.65625 C 132.214844 80.359375 129.261719 81.992188 127.207031 82.273438 C 125.144531 82.558594 122.414063 81.757813 121.023438 80.359375 C 119.625 78.960938 119.242188 75.820313 118.839844 73.898438 C 118.429688 71.972656 117.972656 70.421875 118.554688 68.808594 C 119.136719 67.191406 121.636719 65.285156 122.339844 64.210938 C 123.042969 63.132813 122.652344 62.273438 122.773438 62.355469 "
     id="path38" />
  <path
     fill="none"
     stroke-width="1"
     stroke-linecap="round"
     stroke-linejoin="round"
     stroke="rgb(0%, 0%, 0%)"
     stroke-opacity="1"
     stroke-miterlimit="10"
     d="M 165.331344 83.079123 C 167.619465 82.018646 171.208368 82.807473 173.491266 83.961982 C 175.768939 85.121715 177.989148 87.477749 179.007832 90.011399 C 180.031741 92.539826 180.141445 96.358586 179.608595 99.137765 C 179.080969 101.922169 177.780187 105.17151 175.831627 106.681252 C 173.888291 108.190995 170.482229 108.467868 167.922458 108.211891 C 165.35224 107.95069 162.217827 106.790957 160.452107 105.11927 C 158.681164 103.442359 157.787856 100.89826 157.31247 98.139977 C 156.83186 95.381694 155.781832 91.12934 157.557999 88.580017 C 159.349839 86.030695 165.827626 83.742573 168.011267 82.82837 C 170.189684 81.929838 170.670294 82.990314 170.628502 83.157483 M 175.032352 83.742573 C 177.310025 84.949322 178.098853 88.041943 178.898128 90.831571 C 179.692179 93.621198 180.637727 97.96236 179.801884 100.459443 C 178.950368 102.951301 176.061484 104.267754 173.841275 105.798393 C 171.621066 107.339479 168.909799 109.648497 166.491077 109.658945 C 164.072354 109.679841 161.120782 107.961138 159.318495 105.897649 C 157.510983 103.828937 155.74004 100.010177 155.66168 97.267565 C 155.588543 94.51973 156.988581 91.881599 158.879677 89.431533 C 160.760325 86.971019 164.620877 83.220171 166.992583 82.5306 C 169.359064 81.830581 171.830027 84.688121 173.099464 85.241868 C 174.358453 85.79039 174.682342 85.79039 174.56219 85.811286 "
     transform="matrix(0.747748, 0, 0, 0.747748, 0.373874, 0.373874)"
     id="path40" />
  <path
     fill-rule="nonzero"
     fill="rgb(0%, 0%, 0%)"
     fill-opacity="1"
     stroke-width="12.446188"
     stroke-linecap="butt"
     stroke-linejoin="miter"
     stroke="rgb(0%, 0%, 0%)"
     stroke-opacity="0.1137"
     stroke-miterlimit="4"
     d="M 41.982674 0.15119 L 39.956927 0.15119 C 30.638492 0.15119 26.18185 3.719197 26.18185 10.855211 C 26.18185 13.531216 26.992148 18.883227 29.017895 26.911242 C 31.85394 36.27726 33.879687 41.62927 35.905434 42.967273 C 37.931181 44.305276 44.41357 45.197277 54.947453 46.089279 C 112.478658 47.873283 157.450234 65.267316 189.862181 97.825379 C 196.74972 104.515392 235.238907 146.885474 306.14004 224.043623 C 376.636024 301.201772 411.478867 340.449848 411.073718 341.78785 C 338.146838 527.324209 300.467949 621.876391 296.821605 624.998397 C 291.149515 632.134411 270.081749 636.148419 234.023459 637.040421 L 206.068154 637.040421 C 202.016661 641.054428 199.990914 643.730433 199.990914 645.068436 C 199.990914 646.406439 200.801213 652.650451 202.016661 663.800472 C 204.852706 672.720489 208.093901 678.964501 212.145394 682.978509 L 225.920472 682.978509 C 248.608835 681.640507 289.123768 681.194506 347.060123 681.194506 C 368.938187 681.194506 389.195654 681.194506 407.832523 681.194506 C 426.469392 681.194506 441.865067 681.194506 452.804099 682.086508 C 464.148281 682.532508 471.035819 682.532508 473.061566 682.086508 C 484.405747 682.086508 490.077838 678.518501 490.077838 670.936486 C 490.077838 670.490485 489.267539 666.030477 488.052091 658.002461 C 485.216046 648.190442 483.190299 641.94643 481.164553 640.162427 C 479.138806 637.932422 473.466715 637.040421 464.958579 637.040421 C 444.295963 634.810416 426.469392 629.458406 411.073718 620.092388 L 488.052091 426.082013 L 541.126654 484.954127 C 610.81234 560.328272 646.060332 601.806352 646.060332 609.834368 C 646.060332 621.876391 637.957345 630.350408 622.156521 634.810416 C 618.510177 634.810416 614.458684 635.702418 609.191742 637.040421 C 599.063009 637.040421 594.201217 640.608427 594.201217 648.190442 C 594.201217 649.528445 594.606366 654.880455 595.821814 663.800472 C 598.65786 672.720489 601.899054 678.964501 605.950548 682.978509 L 618.105028 682.978509 C 618.510177 682.978509 627.018313 682.978509 642.819137 682.978509 C 659.025111 682.978509 676.851681 682.532508 697.109148 681.194506 C 716.961465 679.856503 730.736543 679.410502 738.029231 679.856503 C 797.991332 679.856503 830.808429 681.194506 836.885669 682.978509 L 844.988655 682.978509 C 849.850447 678.518501 851.876194 674.504493 851.876194 671.828488 C 850.660746 655.326456 846.609253 643.730433 840.126863 637.040421 L 823.92089 637.040421 C 801.232527 636.148419 780.97506 633.472414 763.14849 628.120403 C 744.91677 622.768393 731.141692 616.970382 721.823257 611.172371 C 712.504823 604.928358 704.806985 599.130347 697.919447 592.886335 L 686.980415 583.966318 C 686.980415 584.85832 655.378767 550.070253 592.17547 480.048117 L 505.068363 384.157932 C 505.068363 383.26593 515.197097 356.505879 535.859713 303.877777 C 556.522329 251.249675 578.400393 197.283571 601.088756 141.979464 C 623.777118 86.675357 635.931599 58.131302 637.957345 55.901298 C 644.844884 50.103287 665.102351 46.53528 699.134895 46.089279 C 722.228407 46.089279 733.977738 42.967273 733.977738 37.169262 C 733.977738 35.831259 733.167439 30.92525 731.951991 22.897234 C 729.521095 12.193214 727.090199 5.949202 725.064452 4.165198 C 723.038705 1.935194 718.176913 1.043192 710.884225 1.043192 C 708.858479 1.043192 697.919447 1.043192 678.067129 1.043192 C 657.809663 1.043192 628.233761 1.489193 588.934276 1.935194 C 548.419342 1.935194 517.222843 1.935194 496.155078 1.935194 C 474.682163 1.935194 462.932833 1.489193 460.907086 1.043192 C 449.562905 1.043192 443.890814 4.165198 443.890814 9.963209 C 443.890814 10.855211 444.701113 15.761221 445.916561 25.127239 C 447.132009 31.817252 448.752606 36.27726 449.968054 38.953265 C 451.183502 41.62927 452.804099 43.413274 454.829846 43.859275 C 456.855593 44.751277 460.096787 45.197277 464.148281 46.089279 C 468.199774 46.53528 473.466715 46.981281 479.949105 46.981281 C 486.836643 46.981281 495.344779 49.211285 505.878662 54.117295 C 517.222843 59.469305 522.894934 62.591311 522.894934 63.929314 C 522.489785 63.929314 506.688961 103.177389 475.897611 180.781539 L 428.900288 298.971768 C 303.709144 162.941505 239.2904 91.135366 236.049205 83.999352 C 233.21316 78.647342 231.997712 74.633334 231.997712 71.957329 C 231.997712 59.469305 241.721296 50.995289 261.168464 46.981281 C 261.573613 46.981281 263.59936 46.981281 266.840555 46.981281 C 270.486899 46.981281 272.512645 46.53528 272.917795 46.089279 C 274.943541 46.089279 276.158989 46.089279 276.969288 46.089279 C 277.779587 46.089279 278.589885 45.643278 279.805333 45.197277 C 281.425931 44.305276 282.236229 43.413274 283.046528 42.075271 C 283.856827 40.737269 283.856827 38.507264 283.856827 34.939258 C 283.856827 29.141246 283.451677 23.789236 281.83108 18.883227 C 279.805333 10.40921 278.184736 5.503201 276.158989 4.165198 C 274.133243 2.827196 268.866301 1.489193 261.168464 1.043192 C 259.142717 1.043192 253.065477 1.043192 242.936744 1.043192 C 232.80801 1.043192 219.032933 1.489193 200.801213 1.935194 C 182.974642 2.827196 163.527474 2.827196 142.05456 1.935194 C 90.195445 1.935194 56.56805 1.489193 41.982674 0.15119 Z M 41.982674 0.15119 "
     transform="matrix(0.00964151, 0, 0, -0.00875839, 121.888193, 74.774762)"
     id="path42" />
  <path
     fill-rule="nonzero"
     fill="rgb(100%, 100%, 100%)"
     fill-opacity="1"
     d="M 182.914063 53.140625 C 184.738281 53.058594 187.371094 54.078125 188.875 55.640625 C 190.375 57.203125 191.863281 60.476563 191.910156 62.511719 C 191.953125 64.546875 190.265625 66.21875 189.15625 67.867188 C 188.042969 69.503906 186.953125 71.746094 185.246094 72.335938 C 183.542969 72.933594 180.738281 72.300781 178.921875 71.425781 C 177.113281 70.558594 175.144531 68.914063 174.375 67.109375 C 173.605469 65.300781 173.710938 62.675781 174.308594 60.605469 C 174.90625 58.535156 176.289063 55.984375 177.957031 54.675781 C 179.625 53.359375 182.945313 52.941406 184.304688 52.730469 C 185.664063 52.523438 186.144531 53.148438 186.128906 53.425781 M 179.160156 53.402344 C 180.746094 52.363281 181.910156 51.625 183.847656 52.320313 C 185.792969 53.015625 189.671875 55.648438 190.78125 57.578125 C 191.894531 59.511719 190.726563 61.710938 190.511719 63.910156 C 190.292969 66.101563 190.570313 69.210938 189.480469 70.730469 C 188.378906 72.253906 185.882813 73.152344 183.929688 73.039063 C 181.980469 72.929688 179.609375 71.523438 177.769531 70.0625 C 175.929688 68.605469 173.335938 66.054688 172.878906 64.277344 C 172.421875 62.496094 174.1875 61.261719 175.03125 59.394531 C 175.878906 57.523438 177.441406 53.835938 177.941406 53.058594 C 178.449219 52.273438 177.792969 54.480469 178.074219 54.699219 "
     id="path44" />
  <path
     fill="none"
     stroke-width="1"
     stroke-linecap="round"
     stroke-linejoin="round"
     stroke="rgb(0%, 0%, 0%)"
     stroke-opacity="1"
     stroke-miterlimit="10"
     d="M 247.661925 71.022081 C 249.950047 71.821356 252.170256 74.527399 253.450141 76.972241 C 254.730026 79.411859 255.691246 82.640305 255.351685 85.649341 C 255.022572 88.658378 253.659102 93.208501 251.417997 95.031684 C 249.171667 96.849644 244.658113 96.860092 241.878933 96.567547 C 239.110202 96.280225 236.628791 95.261541 234.758592 93.281637 C 232.89884 91.301733 230.851023 87.477749 230.709975 84.688121 C 230.568926 81.898494 232.381662 78.758857 233.917524 76.549096 C 235.458611 74.349782 237.271346 72.192261 239.930373 71.460898 C 242.599848 70.729535 248.142535 71.941508 249.908254 72.150469 C 251.679198 72.369878 250.702306 72.589287 250.571705 72.740784 M 247.327588 70.990736 C 249.908254 71.711651 253.888959 74.271422 255.012124 76.810297 C 256.130064 79.359619 254.782267 83.429132 254.061352 86.250104 C 253.329989 89.071075 252.619522 92.027872 250.68141 93.720455 C 248.738074 95.407814 244.872298 96.38993 242.411783 96.38993 C 239.940821 96.38993 237.80942 95.439158 235.881756 93.720455 C 233.959316 91.991304 231.148793 88.689722 230.882368 86.041143 C 230.610718 83.392564 232.95108 80.367855 234.241413 77.818533 C 235.531747 75.26921 236.430279 71.769116 238.608696 70.76088 C 240.797561 69.747419 246.120839 71.528811 247.36938 71.74822 C 248.617921 71.978077 246.167855 71.769116 246.120839 72.098229 "
     transform="matrix(0.747748, 0, 0, 0.747748, 0.373874, 0.373874)"
     id="path46" />
  <path
     fill-rule="nonzero"
     fill="rgb(0%, 0%, 0%)"
     fill-opacity="1"
     stroke-width="13.534549"
     stroke-linecap="butt"
     stroke-linejoin="miter"
     stroke="rgb(0%, 0%, 0%)"
     stroke-opacity="0.1098"
     stroke-miterlimit="4"
     d="M 231.203362 637.005051 C 213.139674 637.005051 202.12523 637.451052 199.041186 637.897053 C 195.516564 638.789055 194.194831 642.357062 194.194831 649.047075 C 194.194831 666.887109 197.719453 678.037131 205.209275 682.051138 C 205.649852 682.497139 248.826472 682.94314 335.179712 682.94314 C 507.886191 682.94314 598.645209 682.497139 607.897341 681.159137 C 650.192806 674.469124 684.998448 659.305095 713.195425 636.11305 C 740.951823 612.475004 755.490889 582.146945 755.931467 543.790871 C 755.931467 501.42079 736.546046 463.064715 698.215781 429.16865 C 659.444939 394.826584 614.946585 372.08054 565.161299 360.038516 L 555.028011 356.91651 C 597.764053 351.118499 632.569696 335.508469 659.885516 310.978422 C 687.201337 286.448374 701.299825 255.674315 702.180981 219.102244 C 702.180981 170.48815 677.949204 123.212059 629.926229 78.165972 C 581.903254 32.673884 522.865835 6.805834 452.813972 1.007823 C 448.408195 0.115821 377.915754 0.115821 242.217806 0.115821 C 108.722746 0.115821 40.873772 0.561822 39.111461 1.899825 C 36.467995 4.129829 35.146262 6.805834 35.146262 9.92784 C 35.146262 14.83385 35.586839 19.293858 36.908573 24.199868 C 40.433195 36.687892 43.517239 43.823906 47.041861 45.161908 C 49.685327 45.607909 54.531683 46.05391 62.021505 46.05391 L 68.189593 46.05391 C 85.812703 46.05391 106.07928 46.945912 128.108168 49.175916 C 137.3603 50.95992 143.528389 54.973927 147.053011 61.217939 C 148.815322 63.447944 173.047099 156.216123 218.867185 339.076476 C 265.127849 521.490828 288.037892 617.827014 288.037892 628.085034 C 288.037892 632.545043 269.093049 635.667049 231.203362 637.005051 Z M 648.871073 543.790871 C 648.871073 563.86091 644.024717 582.592946 633.891429 599.98698 C 624.198718 617.381014 607.456764 628.531035 584.987298 633.883045 C 580.140943 635.221048 549.741078 636.11305 492.906548 637.005051 C 479.689215 637.005051 465.590727 637.005051 451.051661 637.005051 C 436.512595 637.005051 424.616996 636.559051 415.805441 636.11305 L 403.028686 636.11305 C 392.895398 635.221048 386.727309 632.099042 384.083843 625.85503 C 382.762109 623.179025 372.188243 583.484948 351.921667 505.880798 C 351.921667 504.096795 351.481089 501.86679 351.040511 500.082787 L 320.200068 373.864543 L 400.825797 373.864543 C 455.016861 373.864543 485.857304 374.756545 493.787703 376.094547 C 533.880279 382.78456 569.567077 401.962597 600.848097 434.074659 C 632.129118 466.186722 648.430495 502.758792 648.871073 543.790871 Z M 595.120587 228.914263 C 595.120587 258.35032 587.190187 282.880367 572.210543 302.058404 C 556.790322 321.236442 536.523745 332.832464 511.851391 335.95447 C 507.886191 336.846472 480.129793 336.846472 429.022773 336.846472 C 350.159356 336.846472 310.507358 336.846472 310.06678 335.95447 C 310.06678 334.616467 304.339269 310.532421 292.884248 262.810329 C 281.869804 215.534237 269.974204 168.704147 258.078605 121.874056 L 240.014917 51.851921 C 240.014917 49.175916 243.980117 47.837913 251.910516 47.837913 C 259.840916 47.837913 287.156737 47.391913 332.976823 46.05391 C 392.45482 46.05391 424.176418 46.499911 429.022773 46.945912 C 470.437082 51.851921 508.326769 71.029958 543.132412 104.926024 C 577.497476 138.822089 595.120587 180.300169 595.120587 228.914263 Z M 595.120587 228.914263 "
     transform="matrix(0.0088662, 0, 0, -0.00875839, 178.711824, 65.801796)"
     id="path48" />
</svg>
